<svg width="498" height="62" viewBox="0 0 498 62" fill="none" xmlns="http://www.w3.org/2000/svg">
<path d="M52.276 34.42C50.9693 34.42 49.742 34.1913 48.594 33.734C47.4553 33.2673 46.452 32.586 45.584 31.69C44.7253 30.794 44.0533 29.6973 43.568 28.4C43.0827 27.0933 42.84 25.6 42.84 23.92C42.84 21.7173 43.2507 19.8367 44.072 18.278C44.8933 16.71 46.018 15.5107 47.446 14.68C48.874 13.84 50.484 13.42 52.276 13.42C54.7587 13.42 56.7233 13.9987 58.17 15.156C59.626 16.304 60.6107 17.9187 61.124 20L57.68 20.546C57.2973 19.3513 56.672 18.3993 55.804 17.69C54.936 16.9713 53.83 16.612 52.486 16.612C51.1327 16.5933 50.008 16.8873 49.112 17.494C48.216 18.1007 47.5393 18.9547 47.082 20.056C46.634 21.1573 46.41 22.4453 46.41 23.92C46.41 25.3947 46.634 26.678 47.082 27.77C47.53 28.8527 48.202 29.6973 49.098 30.304C50.0033 30.9107 51.1327 31.2233 52.486 31.242C53.5033 31.2513 54.3947 31.0693 55.16 30.696C55.9253 30.3133 56.5507 29.7393 57.036 28.974C57.5213 28.1993 57.848 27.2333 58.016 26.076H54.46V23.43H61.6C61.6187 23.5793 61.6327 23.7987 61.642 24.088C61.6513 24.3773 61.656 24.55 61.656 24.606C61.656 26.51 61.278 28.204 60.522 29.688C59.7753 31.1627 58.702 32.32 57.302 33.16C55.902 34 54.2267 34.42 52.276 34.42ZM64.4678 34V18.88H67.4498V22.562L67.0858 22.086C67.2725 21.582 67.5198 21.1247 67.8278 20.714C68.1451 20.294 68.5231 19.9487 68.9618 19.678C69.3351 19.426 69.7458 19.23 70.1938 19.09C70.6511 18.9407 71.1178 18.852 71.5938 18.824C72.0698 18.7867 72.5318 18.8053 72.9798 18.88V22.03C72.5318 21.8993 72.0138 21.8573 71.4258 21.904C70.8471 21.9507 70.3245 22.114 69.8578 22.394C69.3911 22.646 69.0085 22.968 68.7098 23.36C68.4205 23.752 68.2058 24.2 68.0658 24.704C67.9258 25.1987 67.8558 25.7353 67.8558 26.314V34H64.4678ZM79.5239 34.42C78.4319 34.42 77.5079 34.2147 76.7519 33.804C75.9959 33.384 75.4219 32.8287 75.0299 32.138C74.6473 31.4473 74.4559 30.6867 74.4559 29.856C74.4559 29.128 74.5773 28.4747 74.8199 27.896C75.0626 27.308 75.4359 26.804 75.9399 26.384C76.4439 25.9547 77.0973 25.6047 77.8999 25.334C78.5066 25.138 79.2159 24.9607 80.0279 24.802C80.8493 24.6433 81.7359 24.4987 82.6879 24.368C83.6493 24.228 84.6526 24.0787 85.6979 23.92L84.4939 24.606C84.5033 23.5607 84.2699 22.7907 83.7939 22.296C83.3179 21.8013 82.5153 21.554 81.3859 21.554C80.7046 21.554 80.0466 21.7127 79.4119 22.03C78.7773 22.3473 78.3339 22.8933 78.0819 23.668L75.0019 22.702C75.3753 21.4233 76.0846 20.3967 77.1299 19.622C78.1846 18.8473 79.6033 18.46 81.3859 18.46C82.7299 18.46 83.9106 18.6793 84.9279 19.118C85.9546 19.5567 86.7153 20.2753 87.2099 21.274C87.4806 21.806 87.6439 22.352 87.6999 22.912C87.7559 23.4627 87.7839 24.0647 87.7839 24.718V34H84.8299V30.724L85.3199 31.256C84.6386 32.348 83.8406 33.1507 82.9259 33.664C82.0206 34.168 80.8866 34.42 79.5239 34.42ZM80.1959 31.732C80.9613 31.732 81.6146 31.5967 82.1559 31.326C82.6973 31.0553 83.1266 30.724 83.4439 30.332C83.7706 29.94 83.9899 29.5713 84.1019 29.226C84.2793 28.7967 84.3773 28.3067 84.3959 27.756C84.4239 27.196 84.4379 26.7433 84.4379 26.398L85.4739 26.706C84.4566 26.8647 83.5839 27.0047 82.8559 27.126C82.1279 27.2473 81.5026 27.364 80.9799 27.476C80.4573 27.5787 79.9953 27.6953 79.5939 27.826C79.2019 27.966 78.8706 28.1293 78.5999 28.316C78.3293 28.5027 78.1193 28.7173 77.9699 28.96C77.8299 29.2027 77.7599 29.4873 77.7599 29.814C77.7599 30.1873 77.8533 30.5187 78.0399 30.808C78.2266 31.088 78.4973 31.312 78.8519 31.48C79.2159 31.648 79.6639 31.732 80.1959 31.732ZM97.4908 34.42C96.1001 34.42 94.8868 34.07 93.8508 33.37C92.8148 32.67 92.0121 31.718 91.4428 30.514C90.8734 29.31 90.5888 27.952 90.5888 26.44C90.5888 24.9093 90.8734 23.5467 91.4428 22.352C92.0214 21.148 92.8381 20.2007 93.8928 19.51C94.9474 18.81 96.1888 18.46 97.6168 18.46C99.0541 18.46 100.258 18.81 101.229 19.51C102.209 20.2007 102.951 21.148 103.455 22.352C103.959 23.556 104.211 24.9187 104.211 26.44C104.211 27.9427 103.959 29.3007 103.455 30.514C102.951 31.718 102.199 32.67 101.201 33.37C100.202 34.07 98.9654 34.42 97.4908 34.42ZM98.0088 31.396C98.9141 31.396 99.6421 31.1907 100.193 30.78C100.753 30.36 101.159 29.7767 101.411 29.03C101.672 28.2833 101.803 27.42 101.803 26.44C101.803 25.4507 101.672 24.5873 101.411 23.85C101.159 23.1033 100.762 22.5247 100.221 22.114C99.6794 21.694 98.9794 21.484 98.1208 21.484C97.2154 21.484 96.4688 21.708 95.8808 22.156C95.2928 22.5947 94.8588 23.192 94.5788 23.948C94.2988 24.6947 94.1588 25.5253 94.1588 26.44C94.1588 27.364 94.2941 28.204 94.5648 28.96C94.8448 29.7067 95.2694 30.2993 95.8388 30.738C96.4081 31.1767 97.1314 31.396 98.0088 31.396ZM101.803 34V23.388H101.383V13.84H104.785V34H101.803ZM115.584 34.42C114.053 34.42 112.709 34.0887 111.552 33.426C110.395 32.7633 109.489 31.844 108.836 30.668C108.192 29.492 107.87 28.1387 107.87 26.608C107.87 24.956 108.187 23.5233 108.822 22.31C109.457 21.0873 110.339 20.14 111.468 19.468C112.597 18.796 113.904 18.46 115.388 18.46C116.956 18.46 118.286 18.8287 119.378 19.566C120.479 20.294 121.296 21.3253 121.828 22.66C122.36 23.9947 122.561 25.5673 122.43 27.378H119.084V26.146C119.075 24.5033 118.785 23.304 118.216 22.548C117.647 21.792 116.751 21.414 115.528 21.414C114.147 21.414 113.12 21.8433 112.448 22.702C111.776 23.5513 111.44 24.7973 111.44 26.44C111.44 27.9707 111.776 29.156 112.448 29.996C113.12 30.836 114.1 31.256 115.388 31.256C116.219 31.256 116.933 31.074 117.53 30.71C118.137 30.3367 118.603 29.8 118.93 29.1L122.262 30.108C121.683 31.4707 120.787 32.53 119.574 33.286C118.37 34.042 117.04 34.42 115.584 34.42ZM110.376 27.378V24.83H120.778V27.378H110.376ZM132.82 34.42C131.345 34.42 130.108 34.07 129.11 33.37C128.111 32.67 127.36 31.718 126.856 30.514C126.352 29.3007 126.1 27.9427 126.1 26.44C126.1 24.9187 126.352 23.556 126.856 22.352C127.36 21.148 128.097 20.2007 129.068 19.51C130.048 18.81 131.256 18.46 132.694 18.46C134.122 18.46 135.358 18.81 136.404 19.51C137.458 20.2007 138.275 21.148 138.854 22.352C139.432 23.5467 139.722 24.9093 139.722 26.44C139.722 27.952 139.437 29.31 138.868 30.514C138.298 31.718 137.496 32.67 136.46 33.37C135.424 34.07 134.21 34.42 132.82 34.42ZM125.526 34V13.84H128.928V23.388H128.508V34H125.526ZM132.302 31.396C133.179 31.396 133.902 31.1767 134.472 30.738C135.041 30.2993 135.461 29.7067 135.732 28.96C136.012 28.204 136.152 27.364 136.152 26.44C136.152 25.5253 136.012 24.6947 135.732 23.948C135.452 23.192 135.018 22.5947 134.43 22.156C133.842 21.708 133.095 21.484 132.19 21.484C131.331 21.484 130.631 21.694 130.09 22.114C129.548 22.5247 129.147 23.1033 128.886 23.85C128.634 24.5873 128.508 25.4507 128.508 26.44C128.508 27.42 128.634 28.2833 128.886 29.03C129.147 29.7767 129.553 30.36 130.104 30.78C130.664 31.1907 131.396 31.396 132.302 31.396ZM149.486 34.42C147.974 34.42 146.653 34.0793 145.524 33.398C144.394 32.7167 143.517 31.7787 142.892 30.584C142.276 29.38 141.968 27.9987 141.968 26.44C141.968 24.8533 142.285 23.4627 142.92 22.268C143.554 21.0733 144.436 20.14 145.566 19.468C146.695 18.796 148.002 18.46 149.486 18.46C151.007 18.46 152.332 18.8007 153.462 19.482C154.591 20.1633 155.468 21.106 156.094 22.31C156.719 23.5047 157.032 24.8813 157.032 26.44C157.032 28.008 156.714 29.394 156.08 30.598C155.454 31.7927 154.577 32.7307 153.448 33.412C152.318 34.084 150.998 34.42 149.486 34.42ZM149.486 31.256C150.83 31.256 151.828 30.808 152.482 29.912C153.135 29.016 153.462 27.8587 153.462 26.44C153.462 24.9747 153.13 23.808 152.468 22.94C151.805 22.0627 150.811 21.624 149.486 21.624C148.58 21.624 147.834 21.8293 147.246 22.24C146.667 22.6413 146.238 23.206 145.958 23.934C145.678 24.6527 145.538 25.488 145.538 26.44C145.538 27.9053 145.869 29.0767 146.532 29.954C147.204 30.822 148.188 31.256 149.486 31.256ZM166.794 34.42C165.282 34.42 163.962 34.0793 162.832 33.398C161.703 32.7167 160.826 31.7787 160.2 30.584C159.584 29.38 159.276 27.9987 159.276 26.44C159.276 24.8533 159.594 23.4627 160.228 22.268C160.863 21.0733 161.745 20.14 162.874 19.468C164.004 18.796 165.31 18.46 166.794 18.46C168.316 18.46 169.641 18.8007 170.77 19.482C171.9 20.1633 172.777 21.106 173.402 22.31C174.028 23.5047 174.34 24.8813 174.34 26.44C174.34 28.008 174.023 29.394 173.388 30.598C172.763 31.7927 171.886 32.7307 170.756 33.412C169.627 34.084 168.306 34.42 166.794 34.42ZM166.794 31.256C168.138 31.256 169.137 30.808 169.79 29.912C170.444 29.016 170.77 27.8587 170.77 26.44C170.77 24.9747 170.439 23.808 169.776 22.94C169.114 22.0627 168.12 21.624 166.794 21.624C165.889 21.624 165.142 21.8293 164.554 22.24C163.976 22.6413 163.546 23.206 163.266 23.934C162.986 24.6527 162.846 25.488 162.846 26.44C162.846 27.9053 163.178 29.0767 163.84 29.954C164.512 30.822 165.497 31.256 166.794 31.256ZM177.397 34L177.425 13.84H180.841V26.16L186.371 18.88H190.585L184.719 26.44L191.089 34H186.623L180.841 26.72V34H177.397Z" fill="#212121"/>
<circle cx="19" cy="24" r="11" fill="#2B6CE5"/>
<path d="M20 20L16 24L20 28" stroke="#FDFDFD" stroke-width="2" stroke-linecap="round" stroke-linejoin="round"/>
<path d="M240 14C240 7.37258 245.373 2 252 2H486C492.627 2 498 7.37258 498 14V41C498 47.6274 492.627 53 486 53H252C245.373 53 240 47.6274 240 41V14Z" fill="#F6F6F6"/>
<path d="M378.456 32.144C378.157 32.144 377.912 32.0747 377.72 31.936C377.539 31.7973 377.421 31.6107 377.368 31.376C377.325 31.1413 377.373 30.88 377.512 30.592L381.608 21.616C381.779 21.2533 381.981 20.992 382.216 20.832C382.451 20.6613 382.723 20.576 383.032 20.576C383.341 20.576 383.613 20.6613 383.848 20.832C384.083 20.992 384.28 21.2533 384.44 21.616L388.568 30.592C388.707 30.88 388.755 31.1467 388.712 31.392C388.68 31.6267 388.573 31.8133 388.392 31.952C388.211 32.08 387.976 32.144 387.688 32.144C387.325 32.144 387.043 32.0587 386.84 31.888C386.648 31.7173 386.477 31.4507 386.328 31.088L385.368 28.864L386.36 29.552H379.688L380.68 28.864L379.736 31.088C379.576 31.4613 379.405 31.7333 379.224 31.904C379.053 32.064 378.797 32.144 378.456 32.144ZM383 23.36L380.952 28.24L380.52 27.616H385.528L385.096 28.24L383.032 23.36H383ZM392.842 32.176C392.373 32.176 391.888 32.1333 391.386 32.048C390.896 31.9627 390.448 31.8187 390.042 31.616C389.829 31.5093 389.674 31.376 389.578 31.216C389.493 31.0453 389.456 30.8747 389.466 30.704C389.477 30.5333 389.53 30.3787 389.626 30.24C389.733 30.1013 389.866 30.0107 390.026 29.968C390.197 29.9147 390.384 29.9307 390.586 30.016C391.024 30.1973 391.424 30.3253 391.786 30.4C392.149 30.4747 392.506 30.512 392.858 30.512C393.317 30.512 393.648 30.4427 393.85 30.304C394.064 30.1547 394.17 29.9627 394.17 29.728C394.17 29.5147 394.101 29.3547 393.962 29.248C393.824 29.1413 393.621 29.0667 393.354 29.024L391.674 28.72C391.013 28.6027 390.501 28.3627 390.138 28C389.786 27.6267 389.61 27.152 389.61 26.576C389.61 26.0427 389.76 25.584 390.058 25.2C390.357 24.8053 390.768 24.5067 391.29 24.304C391.824 24.0907 392.426 23.984 393.098 23.984C393.578 23.984 394.021 24.0267 394.426 24.112C394.832 24.1973 395.221 24.336 395.594 24.528C395.786 24.624 395.92 24.752 395.994 24.912C396.08 25.072 396.106 25.2373 396.074 25.408C396.053 25.5787 395.989 25.7333 395.882 25.872C395.776 26.0107 395.637 26.1013 395.466 26.144C395.306 26.1867 395.12 26.1653 394.906 26.08C394.565 25.92 394.25 25.808 393.962 25.744C393.674 25.6693 393.397 25.632 393.13 25.632C392.65 25.632 392.304 25.712 392.09 25.872C391.877 26.0213 391.77 26.2133 391.77 26.448C391.77 26.6293 391.829 26.784 391.946 26.912C392.074 27.0293 392.266 27.1093 392.522 27.152L394.202 27.456C394.896 27.5733 395.424 27.808 395.786 28.16C396.149 28.5013 396.33 28.9707 396.33 29.568C396.33 30.3787 396.01 31.0187 395.37 31.488C394.741 31.9467 393.898 32.176 392.842 32.176ZM400.717 32.176C400.248 32.176 399.763 32.1333 399.261 32.048C398.771 31.9627 398.323 31.8187 397.917 31.616C397.704 31.5093 397.549 31.376 397.453 31.216C397.368 31.0453 397.331 30.8747 397.341 30.704C397.352 30.5333 397.405 30.3787 397.501 30.24C397.608 30.1013 397.741 30.0107 397.901 29.968C398.072 29.9147 398.259 29.9307 398.461 30.016C398.899 30.1973 399.299 30.3253 399.661 30.4C400.024 30.4747 400.381 30.512 400.733 30.512C401.192 30.512 401.523 30.4427 401.725 30.304C401.939 30.1547 402.045 29.9627 402.045 29.728C402.045 29.5147 401.976 29.3547 401.837 29.248C401.699 29.1413 401.496 29.0667 401.229 29.024L399.549 28.72C398.888 28.6027 398.376 28.3627 398.013 28C397.661 27.6267 397.485 27.152 397.485 26.576C397.485 26.0427 397.635 25.584 397.933 25.2C398.232 24.8053 398.643 24.5067 399.165 24.304C399.699 24.0907 400.301 23.984 400.973 23.984C401.453 23.984 401.896 24.0267 402.301 24.112C402.707 24.1973 403.096 24.336 403.469 24.528C403.661 24.624 403.795 24.752 403.869 24.912C403.955 25.072 403.981 25.2373 403.949 25.408C403.928 25.5787 403.864 25.7333 403.757 25.872C403.651 26.0107 403.512 26.1013 403.341 26.144C403.181 26.1867 402.995 26.1653 402.781 26.08C402.44 25.92 402.125 25.808 401.837 25.744C401.549 25.6693 401.272 25.632 401.005 25.632C400.525 25.632 400.179 25.712 399.965 25.872C399.752 26.0213 399.645 26.2133 399.645 26.448C399.645 26.6293 399.704 26.784 399.821 26.912C399.949 27.0293 400.141 27.1093 400.397 27.152L402.077 27.456C402.771 27.5733 403.299 27.808 403.661 28.16C404.024 28.5013 404.205 28.9707 404.205 29.568C404.205 30.3787 403.885 31.0187 403.245 31.488C402.616 31.9467 401.773 32.176 400.717 32.176ZM406.8 32.128C406.406 32.128 406.102 32.016 405.888 31.792C405.686 31.5573 405.584 31.232 405.584 30.816V25.344C405.584 24.9173 405.686 24.592 405.888 24.368C406.102 24.1333 406.406 24.016 406.8 24.016C407.184 24.016 407.478 24.1333 407.68 24.368C407.894 24.592 408 24.9173 408 25.344V30.816C408 31.232 407.899 31.5573 407.696 31.792C407.494 32.016 407.195 32.128 406.8 32.128ZM406.8 22.704C406.352 22.704 406.006 22.6027 405.76 22.4C405.526 22.1867 405.408 21.888 405.408 21.504C405.408 21.1093 405.526 20.8107 405.76 20.608C406.006 20.3947 406.352 20.288 406.8 20.288C407.248 20.288 407.59 20.3947 407.824 20.608C408.059 20.8107 408.176 21.1093 408.176 21.504C408.176 21.888 408.059 22.1867 407.824 22.4C407.59 22.6027 407.248 22.704 406.8 22.704ZM413.641 35.056C413.066 35.056 412.511 35.008 411.978 34.912C411.455 34.816 410.991 34.672 410.586 34.48C410.34 34.3733 410.164 34.2347 410.058 34.064C409.962 33.8933 409.919 33.712 409.93 33.52C409.951 33.328 410.015 33.1573 410.122 33.008C410.239 32.8587 410.383 32.752 410.554 32.688C410.724 32.6347 410.906 32.6507 411.098 32.736C411.567 32.9493 411.999 33.088 412.394 33.152C412.799 33.216 413.146 33.248 413.434 33.248C414.116 33.248 414.628 33.0933 414.97 32.784C415.311 32.4747 415.482 32 415.482 31.36V30.144H415.626C415.466 30.6347 415.135 31.0347 414.634 31.344C414.132 31.6533 413.578 31.808 412.97 31.808C412.266 31.808 411.652 31.648 411.13 31.328C410.607 30.9973 410.202 30.5387 409.914 29.952C409.626 29.3547 409.482 28.6667 409.482 27.888C409.482 27.3013 409.562 26.768 409.722 26.288C409.892 25.808 410.127 25.3973 410.426 25.056C410.735 24.7147 411.103 24.4533 411.53 24.272C411.967 24.08 412.447 23.984 412.97 23.984C413.599 23.984 414.154 24.1387 414.634 24.448C415.124 24.7467 415.45 25.1413 415.61 25.632L415.45 26.144V25.232C415.45 24.8373 415.551 24.5387 415.754 24.336C415.967 24.1227 416.266 24.016 416.65 24.016C417.034 24.016 417.327 24.1227 417.53 24.336C417.732 24.5387 417.834 24.8373 417.834 25.232V31.088C417.834 32.4 417.471 33.3867 416.746 34.048C416.031 34.72 414.996 35.056 413.641 35.056ZM413.69 30C414.052 30 414.362 29.9147 414.618 29.744C414.884 29.5733 415.092 29.3333 415.242 29.024C415.391 28.704 415.466 28.3253 415.466 27.888C415.466 27.2267 415.3 26.7147 414.97 26.352C414.65 25.9787 414.223 25.792 413.69 25.792C413.327 25.792 413.012 25.8773 412.746 26.048C412.479 26.208 412.271 26.448 412.122 26.768C411.983 27.0773 411.914 27.4507 411.914 27.888C411.914 28.5493 412.074 29.0667 412.394 29.44C412.714 29.8133 413.146 30 413.69 30ZM420.925 32.144C420.531 32.144 420.227 32.0373 420.013 31.824C419.811 31.6107 419.709 31.3067 419.709 30.912V25.232C419.709 24.8373 419.811 24.5387 420.013 24.336C420.227 24.1227 420.52 24.016 420.893 24.016C421.277 24.016 421.571 24.1227 421.773 24.336C421.976 24.5387 422.077 24.8373 422.077 25.232V26.144L421.901 25.616C422.147 25.0933 422.509 24.6933 422.989 24.416C423.48 24.128 424.035 23.984 424.653 23.984C425.283 23.984 425.8 24.1067 426.205 24.352C426.611 24.5867 426.915 24.9493 427.117 25.44C427.32 25.92 427.421 26.5333 427.421 27.28V30.912C427.421 31.3067 427.315 31.6107 427.101 31.824C426.899 32.0373 426.6 32.144 426.205 32.144C425.821 32.144 425.523 32.0373 425.309 31.824C425.107 31.6107 425.005 31.3067 425.005 30.912V27.392C425.005 26.848 424.904 26.4587 424.701 26.224C424.509 25.9787 424.211 25.856 423.805 25.856C423.293 25.856 422.883 26.016 422.573 26.336C422.275 26.656 422.125 27.0827 422.125 27.616V30.912C422.125 31.7333 421.725 32.144 420.925 32.144ZM430.473 32.144C430.078 32.144 429.774 32.0373 429.561 31.824C429.358 31.6107 429.257 31.3067 429.257 30.912V25.232C429.257 24.8373 429.358 24.5387 429.561 24.336C429.774 24.1227 430.068 24.016 430.441 24.016C430.825 24.016 431.118 24.1227 431.321 24.336C431.524 24.5387 431.625 24.8373 431.625 25.232V26.256L431.449 25.616C431.662 25.1253 431.993 24.7307 432.441 24.432C432.889 24.1333 433.417 23.984 434.025 23.984C434.633 23.984 435.14 24.128 435.545 24.416C435.95 24.704 436.238 25.1467 436.409 25.744H436.185C436.42 25.2 436.777 24.7733 437.257 24.464C437.748 24.144 438.308 23.984 438.937 23.984C439.545 23.984 440.041 24.1067 440.425 24.352C440.82 24.5867 441.113 24.9493 441.305 25.44C441.497 25.92 441.593 26.5333 441.593 27.28V30.912C441.593 31.3067 441.486 31.6107 441.273 31.824C441.07 32.0373 440.777 32.144 440.393 32.144C439.998 32.144 439.694 32.0373 439.481 31.824C439.278 31.6107 439.177 31.3067 439.177 30.912V27.36C439.177 26.8373 439.092 26.4587 438.921 26.224C438.761 25.9787 438.484 25.856 438.089 25.856C437.63 25.856 437.273 26.016 437.017 26.336C436.761 26.656 436.633 27.1093 436.633 27.696V30.912C436.633 31.3067 436.526 31.6107 436.313 31.824C436.11 32.0373 435.817 32.144 435.433 32.144C435.049 32.144 434.75 32.0373 434.537 31.824C434.324 31.6107 434.217 31.3067 434.217 30.912V27.36C434.217 26.8373 434.132 26.4587 433.961 26.224C433.801 25.9787 433.524 25.856 433.129 25.856C432.67 25.856 432.313 26.016 432.057 26.336C431.801 26.656 431.673 27.1093 431.673 27.696V30.912C431.673 31.7333 431.273 32.144 430.473 32.144ZM447.524 32.176C446.596 32.176 445.796 32.0107 445.124 31.68C444.462 31.3387 443.95 30.864 443.588 30.256C443.236 29.6373 443.06 28.912 443.06 28.08C443.06 27.2693 443.23 26.56 443.572 25.952C443.913 25.3333 444.388 24.8533 444.996 24.512C445.614 24.16 446.313 23.984 447.092 23.984C447.657 23.984 448.169 24.08 448.628 24.272C449.086 24.4533 449.481 24.72 449.812 25.072C450.142 25.4133 450.393 25.8347 450.564 26.336C450.734 26.8267 450.82 27.376 450.82 27.984C450.82 28.1867 450.756 28.3413 450.628 28.448C450.5 28.544 450.313 28.592 450.068 28.592H445.044V27.344H449.076L448.82 27.568C448.82 27.1307 448.756 26.768 448.628 26.48C448.5 26.1813 448.313 25.9573 448.068 25.808C447.833 25.6587 447.54 25.584 447.188 25.584C446.793 25.584 446.457 25.6747 446.18 25.856C445.902 26.0373 445.689 26.2987 445.54 26.64C445.39 26.9813 445.316 27.392 445.316 27.872V28C445.316 28.8107 445.502 29.408 445.876 29.792C446.26 30.176 446.825 30.368 447.572 30.368C447.828 30.368 448.121 30.336 448.452 30.272C448.782 30.208 449.092 30.1067 449.38 29.968C449.625 29.8507 449.844 29.8133 450.036 29.856C450.228 29.888 450.377 29.9733 450.484 30.112C450.59 30.2507 450.649 30.4107 450.66 30.592C450.681 30.7733 450.644 30.9547 450.548 31.136C450.452 31.3067 450.292 31.4507 450.068 31.568C449.705 31.7707 449.294 31.92 448.836 32.016C448.388 32.1227 447.95 32.176 447.524 32.176ZM453.441 32.144C453.046 32.144 452.742 32.0373 452.529 31.824C452.326 31.6107 452.225 31.3067 452.225 30.912V25.232C452.225 24.8373 452.326 24.5387 452.529 24.336C452.742 24.1227 453.036 24.016 453.409 24.016C453.793 24.016 454.086 24.1227 454.289 24.336C454.492 24.5387 454.593 24.8373 454.593 25.232V26.144L454.417 25.616C454.662 25.0933 455.025 24.6933 455.505 24.416C455.996 24.128 456.55 23.984 457.169 23.984C457.798 23.984 458.316 24.1067 458.721 24.352C459.126 24.5867 459.43 24.9493 459.633 25.44C459.836 25.92 459.937 26.5333 459.937 27.28V30.912C459.937 31.3067 459.83 31.6107 459.617 31.824C459.414 32.0373 459.116 32.144 458.721 32.144C458.337 32.144 458.038 32.0373 457.825 31.824C457.622 31.6107 457.521 31.3067 457.521 30.912V27.392C457.521 26.848 457.42 26.4587 457.217 26.224C457.025 25.9787 456.726 25.856 456.321 25.856C455.809 25.856 455.398 26.016 455.089 26.336C454.79 26.656 454.641 27.0827 454.641 27.616V30.912C454.641 31.7333 454.241 32.144 453.441 32.144ZM465.597 32.176C464.861 32.176 464.242 32.0533 463.741 31.808C463.25 31.5627 462.882 31.2053 462.637 30.736C462.402 30.2667 462.285 29.6747 462.285 28.96V25.952H461.613C461.314 25.952 461.079 25.872 460.909 25.712C460.748 25.552 460.668 25.3333 460.668 25.056C460.668 24.7573 460.748 24.5333 460.909 24.384C461.079 24.224 461.314 24.144 461.613 24.144H462.285V22.928C462.285 22.5227 462.391 22.2187 462.605 22.016C462.818 21.8027 463.117 21.696 463.501 21.696C463.895 21.696 464.194 21.8027 464.397 22.016C464.599 22.2187 464.701 22.5227 464.701 22.928V24.144H466.221C466.519 24.144 466.749 24.224 466.909 24.384C467.069 24.5333 467.149 24.7573 467.149 25.056C467.149 25.3333 467.069 25.552 466.909 25.712C466.749 25.872 466.519 25.952 466.221 25.952H464.701V28.864C464.701 29.312 464.802 29.648 465.005 29.872C465.218 30.096 465.554 30.208 466.013 30.208C466.173 30.208 466.322 30.192 466.461 30.16C466.599 30.128 466.727 30.1067 466.845 30.096C466.994 30.0853 467.117 30.1333 467.213 30.24C467.309 30.336 467.357 30.5547 467.357 30.896C467.357 31.152 467.314 31.376 467.229 31.568C467.143 31.76 466.994 31.8987 466.781 31.984C466.642 32.0373 466.45 32.08 466.205 32.112C465.97 32.1547 465.767 32.176 465.597 32.176ZM471.217 32.176C470.748 32.176 470.263 32.1333 469.761 32.048C469.271 31.9627 468.823 31.8187 468.417 31.616C468.204 31.5093 468.049 31.376 467.953 31.216C467.868 31.0453 467.831 30.8747 467.841 30.704C467.852 30.5333 467.905 30.3787 468.001 30.24C468.108 30.1013 468.241 30.0107 468.401 29.968C468.572 29.9147 468.759 29.9307 468.961 30.016C469.399 30.1973 469.799 30.3253 470.161 30.4C470.524 30.4747 470.881 30.512 471.233 30.512C471.692 30.512 472.023 30.4427 472.225 30.304C472.439 30.1547 472.545 29.9627 472.545 29.728C472.545 29.5147 472.476 29.3547 472.337 29.248C472.199 29.1413 471.996 29.0667 471.729 29.024L470.049 28.72C469.388 28.6027 468.876 28.3627 468.513 28C468.161 27.6267 467.985 27.152 467.985 26.576C467.985 26.0427 468.135 25.584 468.433 25.2C468.732 24.8053 469.143 24.5067 469.665 24.304C470.199 24.0907 470.801 23.984 471.473 23.984C471.953 23.984 472.396 24.0267 472.801 24.112C473.207 24.1973 473.596 24.336 473.969 24.528C474.161 24.624 474.295 24.752 474.369 24.912C474.455 25.072 474.481 25.2373 474.449 25.408C474.428 25.5787 474.364 25.7333 474.257 25.872C474.151 26.0107 474.012 26.1013 473.841 26.144C473.681 26.1867 473.495 26.1653 473.281 26.08C472.94 25.92 472.625 25.808 472.337 25.744C472.049 25.6693 471.772 25.632 471.505 25.632C471.025 25.632 470.679 25.712 470.465 25.872C470.252 26.0213 470.145 26.2133 470.145 26.448C470.145 26.6293 470.204 26.784 470.321 26.912C470.449 27.0293 470.641 27.1093 470.897 27.152L472.577 27.456C473.271 27.5733 473.799 27.808 474.161 28.16C474.524 28.5013 474.705 28.9707 474.705 29.568C474.705 30.3787 474.385 31.0187 473.745 31.488C473.116 31.9467 472.273 32.176 471.217 32.176Z" fill="#696969" fill-opacity="0.6"/>
<rect x="246" y="8" width="113" height="39" rx="12" fill="white"/>
<path d="M275.4 32C274.995 32 274.68 31.888 274.456 31.664C274.243 31.44 274.136 31.1307 274.136 30.736V21.952C274.136 21.536 274.243 21.2213 274.456 21.008C274.669 20.7947 274.979 20.688 275.384 20.688C275.779 20.688 276.083 20.7947 276.296 21.008C276.509 21.2213 276.616 21.536 276.616 21.952V29.904H280.904C281.245 29.904 281.507 29.9947 281.688 30.176C281.88 30.3573 281.976 30.6133 281.976 30.944C281.976 31.2853 281.88 31.5467 281.688 31.728C281.507 31.9093 281.245 32 280.904 32H275.4ZM287.102 32.176C286.174 32.176 285.374 32.0107 284.702 31.68C284.04 31.3387 283.528 30.864 283.166 30.256C282.814 29.6373 282.638 28.912 282.638 28.08C282.638 27.2693 282.808 26.56 283.15 25.952C283.491 25.3333 283.966 24.8533 284.574 24.512C285.192 24.16 285.891 23.984 286.67 23.984C287.235 23.984 287.747 24.08 288.206 24.272C288.664 24.4533 289.059 24.72 289.39 25.072C289.72 25.4133 289.971 25.8347 290.142 26.336C290.312 26.8267 290.398 27.376 290.398 27.984C290.398 28.1867 290.334 28.3413 290.206 28.448C290.078 28.544 289.891 28.592 289.646 28.592H284.622V27.344H288.654L288.398 27.568C288.398 27.1307 288.334 26.768 288.206 26.48C288.078 26.1813 287.891 25.9573 287.646 25.808C287.411 25.6587 287.118 25.584 286.766 25.584C286.371 25.584 286.035 25.6747 285.758 25.856C285.48 26.0373 285.267 26.2987 285.118 26.64C284.968 26.9813 284.894 27.392 284.894 27.872V28C284.894 28.8107 285.08 29.408 285.454 29.792C285.838 30.176 286.403 30.368 287.15 30.368C287.406 30.368 287.699 30.336 288.03 30.272C288.36 30.208 288.67 30.1067 288.958 29.968C289.203 29.8507 289.422 29.8133 289.614 29.856C289.806 29.888 289.955 29.9733 290.062 30.112C290.168 30.2507 290.227 30.4107 290.238 30.592C290.259 30.7733 290.222 30.9547 290.126 31.136C290.03 31.3067 289.87 31.4507 289.646 31.568C289.283 31.7707 288.872 31.92 288.414 32.016C287.966 32.1227 287.528 32.176 287.102 32.176ZM294.811 32.176C294.342 32.176 293.856 32.1333 293.355 32.048C292.864 31.9627 292.416 31.8187 292.011 31.616C291.798 31.5093 291.643 31.376 291.547 31.216C291.462 31.0453 291.424 30.8747 291.435 30.704C291.446 30.5333 291.499 30.3787 291.595 30.24C291.702 30.1013 291.835 30.0107 291.995 29.968C292.166 29.9147 292.352 29.9307 292.555 30.016C292.992 30.1973 293.392 30.3253 293.755 30.4C294.118 30.4747 294.475 30.512 294.827 30.512C295.286 30.512 295.616 30.4427 295.819 30.304C296.032 30.1547 296.139 29.9627 296.139 29.728C296.139 29.5147 296.07 29.3547 295.931 29.248C295.792 29.1413 295.59 29.0667 295.323 29.024L293.643 28.72C292.982 28.6027 292.47 28.3627 292.107 28C291.755 27.6267 291.579 27.152 291.579 26.576C291.579 26.0427 291.728 25.584 292.027 25.2C292.326 24.8053 292.736 24.5067 293.259 24.304C293.792 24.0907 294.395 23.984 295.067 23.984C295.547 23.984 295.99 24.0267 296.395 24.112C296.8 24.1973 297.19 24.336 297.563 24.528C297.755 24.624 297.888 24.752 297.963 24.912C298.048 25.072 298.075 25.2373 298.043 25.408C298.022 25.5787 297.958 25.7333 297.851 25.872C297.744 26.0107 297.606 26.1013 297.435 26.144C297.275 26.1867 297.088 26.1653 296.875 26.08C296.534 25.92 296.219 25.808 295.931 25.744C295.643 25.6693 295.366 25.632 295.099 25.632C294.619 25.632 294.272 25.712 294.059 25.872C293.846 26.0213 293.739 26.2133 293.739 26.448C293.739 26.6293 293.798 26.784 293.915 26.912C294.043 27.0293 294.235 27.1093 294.491 27.152L296.171 27.456C296.864 27.5733 297.392 27.808 297.755 28.16C298.118 28.5013 298.299 28.9707 298.299 29.568C298.299 30.3787 297.979 31.0187 297.339 31.488C296.71 31.9467 295.867 32.176 294.811 32.176ZM302.686 32.176C302.217 32.176 301.731 32.1333 301.23 32.048C300.739 31.9627 300.291 31.8187 299.886 31.616C299.673 31.5093 299.518 31.376 299.422 31.216C299.337 31.0453 299.299 30.8747 299.31 30.704C299.321 30.5333 299.374 30.3787 299.47 30.24C299.577 30.1013 299.71 30.0107 299.87 29.968C300.041 29.9147 300.227 29.9307 300.43 30.016C300.867 30.1973 301.267 30.3253 301.63 30.4C301.993 30.4747 302.35 30.512 302.702 30.512C303.161 30.512 303.491 30.4427 303.694 30.304C303.907 30.1547 304.014 29.9627 304.014 29.728C304.014 29.5147 303.945 29.3547 303.806 29.248C303.667 29.1413 303.465 29.0667 303.198 29.024L301.518 28.72C300.857 28.6027 300.345 28.3627 299.982 28C299.63 27.6267 299.454 27.152 299.454 26.576C299.454 26.0427 299.603 25.584 299.902 25.2C300.201 24.8053 300.611 24.5067 301.134 24.304C301.667 24.0907 302.27 23.984 302.942 23.984C303.422 23.984 303.865 24.0267 304.27 24.112C304.675 24.1973 305.065 24.336 305.438 24.528C305.63 24.624 305.763 24.752 305.838 24.912C305.923 25.072 305.95 25.2373 305.918 25.408C305.897 25.5787 305.833 25.7333 305.726 25.872C305.619 26.0107 305.481 26.1013 305.31 26.144C305.15 26.1867 304.963 26.1653 304.75 26.08C304.409 25.92 304.094 25.808 303.806 25.744C303.518 25.6693 303.241 25.632 302.974 25.632C302.494 25.632 302.147 25.712 301.934 25.872C301.721 26.0213 301.614 26.2133 301.614 26.448C301.614 26.6293 301.673 26.784 301.79 26.912C301.918 27.0293 302.11 27.1093 302.366 27.152L304.046 27.456C304.739 27.5733 305.267 27.808 305.63 28.16C305.993 28.5013 306.174 28.9707 306.174 29.568C306.174 30.3787 305.854 31.0187 305.214 31.488C304.585 31.9467 303.742 32.176 302.686 32.176ZM311.329 32.176C310.486 32.176 309.75 32.0107 309.121 31.68C308.502 31.3493 308.022 30.8747 307.681 30.256C307.34 29.6373 307.169 28.9067 307.169 28.064C307.169 27.4347 307.265 26.8693 307.457 26.368C307.649 25.8667 307.926 25.44 308.289 25.088C308.662 24.7253 309.105 24.4533 309.617 24.272C310.129 24.08 310.7 23.984 311.329 23.984C312.172 23.984 312.902 24.1493 313.521 24.48C314.15 24.8107 314.636 25.28 314.977 25.888C315.329 26.496 315.505 27.2213 315.505 28.064C315.505 28.704 315.404 29.2747 315.201 29.776C315.009 30.2773 314.732 30.7093 314.369 31.072C314.006 31.4347 313.564 31.712 313.041 31.904C312.529 32.0853 311.958 32.176 311.329 32.176ZM311.329 30.368C311.681 30.368 311.985 30.2827 312.241 30.112C312.497 29.9413 312.7 29.6907 312.849 29.36C312.998 29.0187 313.073 28.5867 313.073 28.064C313.073 27.2853 312.913 26.7147 312.593 26.352C312.273 25.9787 311.852 25.792 311.329 25.792C310.988 25.792 310.684 25.872 310.417 26.032C310.161 26.192 309.958 26.4427 309.809 26.784C309.67 27.1147 309.601 27.5413 309.601 28.064C309.601 28.8427 309.761 29.424 310.081 29.808C310.401 30.1813 310.817 30.368 311.329 30.368ZM318.191 32.144C317.796 32.144 317.492 32.0373 317.279 31.824C317.076 31.6107 316.975 31.3067 316.975 30.912V25.232C316.975 24.8373 317.076 24.5387 317.279 24.336C317.492 24.1227 317.786 24.016 318.159 24.016C318.543 24.016 318.836 24.1227 319.039 24.336C319.242 24.5387 319.343 24.8373 319.343 25.232V26.144L319.167 25.616C319.412 25.0933 319.775 24.6933 320.255 24.416C320.746 24.128 321.3 23.984 321.919 23.984C322.548 23.984 323.066 24.1067 323.471 24.352C323.876 24.5867 324.18 24.9493 324.383 25.44C324.586 25.92 324.687 26.5333 324.687 27.28V30.912C324.687 31.3067 324.58 31.6107 324.367 31.824C324.164 32.0373 323.866 32.144 323.471 32.144C323.087 32.144 322.788 32.0373 322.575 31.824C322.372 31.6107 322.271 31.3067 322.271 30.912V27.392C322.271 26.848 322.17 26.4587 321.967 26.224C321.775 25.9787 321.476 25.856 321.071 25.856C320.559 25.856 320.148 26.016 319.839 26.336C319.54 26.656 319.391 27.0827 319.391 27.616V30.912C319.391 31.7333 318.991 32.144 318.191 32.144ZM329.499 32.176C329.029 32.176 328.544 32.1333 328.043 32.048C327.552 31.9627 327.104 31.8187 326.699 31.616C326.485 31.5093 326.331 31.376 326.235 31.216C326.149 31.0453 326.112 30.8747 326.123 30.704C326.133 30.5333 326.187 30.3787 326.283 30.24C326.389 30.1013 326.523 30.0107 326.683 29.968C326.853 29.9147 327.04 29.9307 327.243 30.016C327.68 30.1973 328.08 30.3253 328.443 30.4C328.805 30.4747 329.163 30.512 329.515 30.512C329.973 30.512 330.304 30.4427 330.507 30.304C330.72 30.1547 330.827 29.9627 330.827 29.728C330.827 29.5147 330.757 29.3547 330.619 29.248C330.48 29.1413 330.277 29.0667 330.011 29.024L328.331 28.72C327.669 28.6027 327.157 28.3627 326.795 28C326.443 27.6267 326.267 27.152 326.267 26.576C326.267 26.0427 326.416 25.584 326.715 25.2C327.013 24.8053 327.424 24.5067 327.947 24.304C328.48 24.0907 329.083 23.984 329.755 23.984C330.235 23.984 330.677 24.0267 331.083 24.112C331.488 24.1973 331.877 24.336 332.251 24.528C332.443 24.624 332.576 24.752 332.651 24.912C332.736 25.072 332.763 25.2373 332.731 25.408C332.709 25.5787 332.645 25.7333 332.539 25.872C332.432 26.0107 332.293 26.1013 332.123 26.144C331.963 26.1867 331.776 26.1653 331.563 26.08C331.221 25.92 330.907 25.808 330.619 25.744C330.331 25.6693 330.053 25.632 329.786 25.632C329.307 25.632 328.96 25.712 328.747 25.872C328.533 26.0213 328.427 26.2133 328.427 26.448C328.427 26.6293 328.485 26.784 328.603 26.912C328.731 27.0293 328.923 27.1093 329.179 27.152L330.859 27.456C331.552 27.5733 332.08 27.808 332.443 28.16C332.805 28.5013 332.987 28.9707 332.987 29.568C332.987 30.3787 332.667 31.0187 332.027 31.488C331.397 31.9467 330.555 32.176 329.499 32.176Z" fill="#696969"/>
</svg>
