<svg width="309" height="1015" viewBox="0 0 309 1015" fill="none" xmlns="http://www.w3.org/2000/svg">
<rect width="309" height="1186" fill="#F9FAFD"/>
<path d="M74.58 333.3C73.14 333.3 71.8967 332.987 70.85 332.36C69.81 331.733 69.0067 330.857 68.44 329.73C67.88 328.603 67.6 327.293 67.6 325.8C67.6 324.307 67.88 322.997 68.44 321.87C69.0067 320.743 69.81 319.867 70.85 319.24C71.8967 318.613 73.14 318.3 74.58 318.3C76.2333 318.3 77.62 318.71 78.74 319.53C79.8667 320.35 80.66 321.46 81.12 322.86L78.38 323.62C78.1133 322.747 77.6633 322.07 77.03 321.59C76.3967 321.103 75.58 320.86 74.58 320.86C73.6667 320.86 72.9033 321.063 72.29 321.47C71.6833 321.877 71.2267 322.45 70.92 323.19C70.6133 323.93 70.46 324.8 70.46 325.8C70.46 326.8 70.6133 327.67 70.92 328.41C71.2267 329.15 71.6833 329.723 72.29 330.13C72.9033 330.537 73.6667 330.74 74.58 330.74C75.58 330.74 76.3967 330.497 77.03 330.01C77.6633 329.523 78.1133 328.847 78.38 327.98L81.12 328.74C80.66 330.14 79.8667 331.25 78.74 332.07C77.62 332.89 76.2333 333.3 74.58 333.3ZM87.3419 333.32C86.4952 333.32 85.8052 333.177 85.2719 332.89C84.7385 332.603 84.3219 332.24 84.0219 331.8C83.7285 331.36 83.5185 330.903 83.3919 330.43C83.2652 329.95 83.1885 329.513 83.1619 329.12C83.1352 328.727 83.1219 328.44 83.1219 328.26V322.2H85.8819V327.3C85.8819 327.547 85.8952 327.863 85.9219 328.25C85.9485 328.63 86.0319 329.013 86.1719 329.4C86.3119 329.787 86.5385 330.11 86.8519 330.37C87.1719 330.63 87.6219 330.76 88.2019 330.76C88.4352 330.76 88.6852 330.723 88.9519 330.65C89.2185 330.577 89.4685 330.437 89.7019 330.23C89.9352 330.017 90.1252 329.707 90.2719 329.3C90.4252 328.887 90.5019 328.347 90.5019 327.68L92.0619 328.42C92.0619 329.273 91.8885 330.073 91.5419 330.82C91.1952 331.567 90.6719 332.17 89.9719 332.63C89.2785 333.09 88.4019 333.32 87.3419 333.32ZM90.8419 333V329.42H90.5019V322.2H93.2419V333H90.8419ZM96.0367 333V322.2H98.4367V324.84L98.1767 324.5C98.3167 324.127 98.5034 323.787 98.7367 323.48C98.9701 323.173 99.2567 322.92 99.5967 322.72C99.8567 322.56 100.14 322.437 100.447 322.35C100.753 322.257 101.07 322.2 101.397 322.18C101.723 322.153 102.05 322.16 102.377 322.2V324.74C102.077 324.647 101.727 324.617 101.327 324.65C100.933 324.677 100.577 324.767 100.257 324.92C99.9367 325.067 99.6667 325.263 99.4467 325.51C99.2267 325.75 99.0601 326.037 98.9467 326.37C98.8334 326.697 98.7767 327.067 98.7767 327.48V333H96.0367ZM104.279 333V322.2H106.679V324.84L106.419 324.5C106.559 324.127 106.746 323.787 106.979 323.48C107.212 323.173 107.499 322.92 107.839 322.72C108.099 322.56 108.382 322.437 108.689 322.35C108.996 322.257 109.312 322.2 109.639 322.18C109.966 322.153 110.292 322.16 110.619 322.2V324.74C110.319 324.647 109.969 324.617 109.569 324.65C109.176 324.677 108.819 324.767 108.499 324.92C108.179 325.067 107.909 325.263 107.689 325.51C107.469 325.75 107.302 326.037 107.189 326.37C107.076 326.697 107.019 327.067 107.019 327.48V333H104.279ZM112.721 320.7V318.3H115.441V320.7H112.721ZM112.721 333V322.2H115.441V333H112.721ZM123.199 333.3C122.079 333.3 121.119 333.05 120.319 332.55C119.519 332.05 118.906 331.37 118.479 330.51C118.052 329.65 117.839 328.68 117.839 327.6C117.839 326.507 118.059 325.53 118.499 324.67C118.946 323.81 119.572 323.133 120.379 322.64C121.186 322.147 122.139 321.9 123.239 321.9C124.512 321.9 125.579 322.223 126.439 322.87C127.306 323.51 127.859 324.387 128.099 325.5L125.379 326.22C125.219 325.66 124.939 325.223 124.539 324.91C124.146 324.597 123.699 324.44 123.199 324.44C122.626 324.44 122.156 324.58 121.789 324.86C121.422 325.133 121.152 325.51 120.979 325.99C120.806 326.463 120.719 327 120.719 327.6C120.719 328.54 120.926 329.303 121.339 329.89C121.759 330.47 122.379 330.76 123.199 330.76C123.812 330.76 124.279 330.62 124.599 330.34C124.919 330.06 125.159 329.66 125.319 329.14L128.099 329.72C127.792 330.867 127.212 331.75 126.359 332.37C125.506 332.99 124.452 333.3 123.199 333.3ZM134.119 333.32C133.273 333.32 132.583 333.177 132.049 332.89C131.516 332.603 131.099 332.24 130.799 331.8C130.506 331.36 130.296 330.903 130.169 330.43C130.043 329.95 129.966 329.513 129.939 329.12C129.913 328.727 129.899 328.44 129.899 328.26V322.2H132.659V327.3C132.659 327.547 132.673 327.863 132.699 328.25C132.726 328.63 132.809 329.013 132.949 329.4C133.089 329.787 133.316 330.11 133.629 330.37C133.949 330.63 134.399 330.76 134.979 330.76C135.213 330.76 135.463 330.723 135.729 330.65C135.996 330.577 136.246 330.437 136.479 330.23C136.713 330.017 136.903 329.707 137.049 329.3C137.203 328.887 137.279 328.347 137.279 327.68L138.839 328.42C138.839 329.273 138.666 330.073 138.319 330.82C137.973 331.567 137.449 332.17 136.749 332.63C136.056 333.09 135.179 333.32 134.119 333.32ZM137.619 333V329.42H137.279V322.2H140.019V333H137.619ZM143.014 333V318.3H145.734V333H143.014ZM152.752 333.32C151.905 333.32 151.215 333.177 150.682 332.89C150.149 332.603 149.732 332.24 149.432 331.8C149.139 331.36 148.929 330.903 148.802 330.43C148.675 329.95 148.599 329.513 148.572 329.12C148.545 328.727 148.532 328.44 148.532 328.26V322.2H151.292V327.3C151.292 327.547 151.305 327.863 151.332 328.25C151.359 328.63 151.442 329.013 151.582 329.4C151.722 329.787 151.949 330.11 152.262 330.37C152.582 330.63 153.032 330.76 153.612 330.76C153.845 330.76 154.095 330.723 154.362 330.65C154.629 330.577 154.879 330.437 155.112 330.23C155.345 330.017 155.535 329.707 155.682 329.3C155.835 328.887 155.912 328.347 155.912 327.68L157.472 328.42C157.472 329.273 157.299 330.073 156.952 330.82C156.605 331.567 156.082 332.17 155.382 332.63C154.689 333.09 153.812 333.32 152.752 333.32ZM156.252 333V329.42H155.912V322.2H158.652V333H156.252ZM174.447 333V326.62C174.447 325.907 174.277 325.353 173.937 324.96C173.604 324.56 173.14 324.36 172.547 324.36C172.167 324.36 171.837 324.45 171.557 324.63C171.277 324.803 171.057 325.05 170.897 325.37C170.744 325.683 170.667 326.047 170.667 326.46L169.527 325.7C169.527 324.96 169.7 324.307 170.047 323.74C170.4 323.173 170.87 322.733 171.457 322.42C172.05 322.1 172.707 321.94 173.427 321.94C174.66 321.94 175.59 322.307 176.217 323.04C176.85 323.767 177.167 324.72 177.167 325.9V333H174.447ZM161.427 333V322.2H163.827V325.78H164.167V333H161.427ZM167.947 333V326.62C167.947 325.907 167.777 325.353 167.437 324.96C167.104 324.56 166.64 324.36 166.047 324.36C165.48 324.36 165.024 324.557 164.677 324.95C164.337 325.337 164.167 325.84 164.167 326.46L163.027 325.66C163.027 324.953 163.204 324.32 163.557 323.76C163.91 323.2 164.384 322.757 164.977 322.43C165.577 322.103 166.247 321.94 166.987 321.94C167.834 321.94 168.527 322.12 169.067 322.48C169.614 322.84 170.017 323.32 170.277 323.92C170.537 324.52 170.667 325.18 170.667 325.9V333H167.947Z" fill="#696969"/>
<path d="M74.58 397.3C73.14 397.3 71.8967 396.987 70.85 396.36C69.81 395.733 69.0067 394.857 68.44 393.73C67.88 392.603 67.6 391.293 67.6 389.8C67.6 388.307 67.88 386.997 68.44 385.87C69.0067 384.743 69.81 383.867 70.85 383.24C71.8967 382.613 73.14 382.3 74.58 382.3C76.2333 382.3 77.62 382.71 78.74 383.53C79.8667 384.35 80.66 385.46 81.12 386.86L78.38 387.62C78.1133 386.747 77.6633 386.07 77.03 385.59C76.3967 385.103 75.58 384.86 74.58 384.86C73.6667 384.86 72.9033 385.063 72.29 385.47C71.6833 385.877 71.2267 386.45 70.92 387.19C70.6133 387.93 70.46 388.8 70.46 389.8C70.46 390.8 70.6133 391.67 70.92 392.41C71.2267 393.15 71.6833 393.723 72.29 394.13C72.9033 394.537 73.6667 394.74 74.58 394.74C75.58 394.74 76.3967 394.497 77.03 394.01C77.6633 393.523 78.1133 392.847 78.38 391.98L81.12 392.74C80.66 394.14 79.8667 395.25 78.74 396.07C77.62 396.89 76.2333 397.3 74.58 397.3ZM83.5219 397V382.3H86.2419V397H83.5219ZM92.2398 397.3C91.4665 397.3 90.8098 397.153 90.2698 396.86C89.7365 396.56 89.3298 396.163 89.0498 395.67C88.7765 395.17 88.6398 394.62 88.6398 394.02C88.6398 393.52 88.7165 393.063 88.8698 392.65C89.0232 392.237 89.2698 391.873 89.6098 391.56C89.9565 391.24 90.4198 390.973 90.9998 390.76C91.3998 390.613 91.8765 390.483 92.4298 390.37C92.9832 390.257 93.6098 390.15 94.3098 390.05C95.0098 389.943 95.7798 389.827 96.6198 389.7L95.6398 390.24C95.6398 389.6 95.4865 389.13 95.1798 388.83C94.8732 388.53 94.3598 388.38 93.6398 388.38C93.2398 388.38 92.8232 388.477 92.3898 388.67C91.9565 388.863 91.6532 389.207 91.4798 389.7L89.0198 388.92C89.2932 388.027 89.8065 387.3 90.5598 386.74C91.3132 386.18 92.3398 385.9 93.6398 385.9C94.5932 385.9 95.4398 386.047 96.1798 386.34C96.9198 386.633 97.4798 387.14 97.8598 387.86C98.0732 388.26 98.1998 388.66 98.2398 389.06C98.2798 389.46 98.2998 389.907 98.2998 390.4V397H95.9198V394.78L96.2598 395.24C95.7332 395.967 95.1632 396.493 94.5498 396.82C93.9432 397.14 93.1732 397.3 92.2398 397.3ZM92.8198 395.16C93.3198 395.16 93.7398 395.073 94.0798 394.9C94.4265 394.72 94.6998 394.517 94.8998 394.29C95.1065 394.063 95.2465 393.873 95.3198 393.72C95.4598 393.427 95.5398 393.087 95.5598 392.7C95.5865 392.307 95.5998 391.98 95.5998 391.72L96.3998 391.92C95.5932 392.053 94.9398 392.167 94.4398 392.26C93.9398 392.347 93.5365 392.427 93.2298 392.5C92.9232 392.573 92.6532 392.653 92.4198 392.74C92.1532 392.847 91.9365 392.963 91.7698 393.09C91.6098 393.21 91.4898 393.343 91.4098 393.49C91.3365 393.637 91.2998 393.8 91.2998 393.98C91.2998 394.227 91.3598 394.44 91.4798 394.62C91.6065 394.793 91.7832 394.927 92.0098 395.02C92.2365 395.113 92.5065 395.16 92.8198 395.16ZM105.12 397.3C103.76 397.3 102.66 396.993 101.82 396.38C100.987 395.76 100.48 394.887 100.3 393.76L103.08 393.34C103.193 393.847 103.443 394.243 103.83 394.53C104.223 394.817 104.72 394.96 105.32 394.96C105.813 394.96 106.193 394.867 106.46 394.68C106.727 394.487 106.86 394.22 106.86 393.88C106.86 393.667 106.807 393.497 106.7 393.37C106.593 393.237 106.353 393.107 105.98 392.98C105.613 392.853 105.04 392.687 104.26 392.48C103.38 392.253 102.677 392 102.15 391.72C101.623 391.44 101.243 391.107 101.01 390.72C100.777 390.327 100.66 389.853 100.66 389.3C100.66 388.607 100.837 388.007 101.19 387.5C101.543 386.987 102.04 386.593 102.68 386.32C103.327 386.04 104.087 385.9 104.96 385.9C105.807 385.9 106.557 386.03 107.21 386.29C107.863 386.55 108.39 386.92 108.79 387.4C109.197 387.88 109.447 388.447 109.54 389.1L106.76 389.6C106.713 389.2 106.54 388.883 106.24 388.65C105.94 388.417 105.533 388.28 105.02 388.24C104.52 388.207 104.117 388.273 103.81 388.44C103.51 388.607 103.36 388.847 103.36 389.16C103.36 389.347 103.423 389.503 103.55 389.63C103.683 389.757 103.953 389.887 104.36 390.02C104.773 390.153 105.4 390.327 106.24 390.54C107.06 390.753 107.717 391.003 108.21 391.29C108.71 391.57 109.073 391.91 109.3 392.31C109.527 392.703 109.64 393.18 109.64 393.74C109.64 394.847 109.24 395.717 108.44 396.35C107.64 396.983 106.533 397.3 105.12 397.3ZM116.058 397.3C114.698 397.3 113.598 396.993 112.758 396.38C111.924 395.76 111.418 394.887 111.238 393.76L114.018 393.34C114.131 393.847 114.381 394.243 114.768 394.53C115.161 394.817 115.658 394.96 116.258 394.96C116.751 394.96 117.131 394.867 117.398 394.68C117.664 394.487 117.798 394.22 117.798 393.88C117.798 393.667 117.744 393.497 117.638 393.37C117.531 393.237 117.291 393.107 116.918 392.98C116.551 392.853 115.978 392.687 115.198 392.48C114.318 392.253 113.614 392 113.088 391.72C112.561 391.44 112.181 391.107 111.948 390.72C111.714 390.327 111.598 389.853 111.598 389.3C111.598 388.607 111.774 388.007 112.128 387.5C112.481 386.987 112.978 386.593 113.618 386.32C114.264 386.04 115.024 385.9 115.898 385.9C116.744 385.9 117.494 386.03 118.148 386.29C118.801 386.55 119.328 386.92 119.728 387.4C120.134 387.88 120.384 388.447 120.478 389.1L117.698 389.6C117.651 389.2 117.478 388.883 117.178 388.65C116.878 388.417 116.471 388.28 115.958 388.24C115.458 388.207 115.054 388.273 114.748 388.44C114.448 388.607 114.298 388.847 114.298 389.16C114.298 389.347 114.361 389.503 114.488 389.63C114.621 389.757 114.891 389.887 115.298 390.02C115.711 390.153 116.338 390.327 117.178 390.54C117.998 390.753 118.654 391.003 119.148 391.29C119.648 391.57 120.011 391.91 120.238 392.31C120.464 392.703 120.578 393.18 120.578 393.74C120.578 394.847 120.178 395.717 119.378 396.35C118.578 396.983 117.471 397.3 116.058 397.3ZM122.775 397V386.2H125.175V388.84L124.915 388.5C125.055 388.127 125.242 387.787 125.475 387.48C125.708 387.173 125.995 386.92 126.335 386.72C126.595 386.56 126.878 386.437 127.185 386.35C127.492 386.257 127.808 386.2 128.135 386.18C128.462 386.153 128.788 386.16 129.115 386.2V388.74C128.815 388.647 128.465 388.617 128.065 388.65C127.672 388.677 127.315 388.767 126.995 388.92C126.675 389.067 126.405 389.263 126.185 389.51C125.965 389.75 125.798 390.037 125.685 390.37C125.572 390.697 125.515 391.067 125.515 391.48V397H122.775ZM135.682 397.3C134.595 397.3 133.642 397.057 132.822 396.57C132.002 396.083 131.362 395.413 130.902 394.56C130.449 393.7 130.222 392.713 130.222 391.6C130.222 390.473 130.455 389.483 130.922 388.63C131.389 387.77 132.032 387.1 132.852 386.62C133.672 386.14 134.615 385.9 135.682 385.9C136.769 385.9 137.722 386.143 138.542 386.63C139.369 387.117 140.012 387.79 140.472 388.65C140.932 389.503 141.162 390.487 141.162 391.6C141.162 392.72 140.929 393.71 140.462 394.57C140.002 395.423 139.359 396.093 138.532 396.58C137.712 397.06 136.762 397.3 135.682 397.3ZM135.682 394.76C136.555 394.76 137.205 394.467 137.632 393.88C138.065 393.287 138.282 392.527 138.282 391.6C138.282 390.64 138.062 389.873 137.622 389.3C137.189 388.727 136.542 388.44 135.682 388.44C135.089 388.44 134.602 388.573 134.222 388.84C133.842 389.107 133.559 389.477 133.372 389.95C133.192 390.423 133.102 390.973 133.102 391.6C133.102 392.567 133.319 393.337 133.752 393.91C134.192 394.477 134.835 394.76 135.682 394.76ZM148.221 397.3C147.134 397.3 146.181 397.057 145.361 396.57C144.541 396.083 143.901 395.413 143.441 394.56C142.988 393.7 142.761 392.713 142.761 391.6C142.761 390.473 142.994 389.483 143.461 388.63C143.928 387.77 144.571 387.1 145.391 386.62C146.211 386.14 147.154 385.9 148.221 385.9C149.308 385.9 150.261 386.143 151.081 386.63C151.908 387.117 152.551 387.79 153.011 388.65C153.471 389.503 153.701 390.487 153.701 391.6C153.701 392.72 153.468 393.71 153.001 394.57C152.541 395.423 151.898 396.093 151.071 396.58C150.251 397.06 149.301 397.3 148.221 397.3ZM148.221 394.76C149.094 394.76 149.744 394.467 150.171 393.88C150.604 393.287 150.821 392.527 150.821 391.6C150.821 390.64 150.601 389.873 150.161 389.3C149.728 388.727 149.081 388.44 148.221 388.44C147.628 388.44 147.141 388.573 146.761 388.84C146.381 389.107 146.098 389.477 145.911 389.95C145.731 390.423 145.641 390.973 145.641 391.6C145.641 392.567 145.858 393.337 146.291 393.91C146.731 394.477 147.374 394.76 148.221 394.76ZM168.9 397V390.62C168.9 389.907 168.73 389.353 168.39 388.96C168.057 388.56 167.593 388.36 167 388.36C166.62 388.36 166.29 388.45 166.01 388.63C165.73 388.803 165.51 389.05 165.35 389.37C165.197 389.683 165.12 390.047 165.12 390.46L163.98 389.7C163.98 388.96 164.153 388.307 164.5 387.74C164.853 387.173 165.323 386.733 165.91 386.42C166.503 386.1 167.16 385.94 167.88 385.94C169.113 385.94 170.043 386.307 170.67 387.04C171.303 387.767 171.62 388.72 171.62 389.9V397H168.9ZM155.88 397V386.2H158.28V389.78H158.62V397H155.88ZM162.4 397V390.62C162.4 389.907 162.23 389.353 161.89 388.96C161.557 388.56 161.093 388.36 160.5 388.36C159.933 388.36 159.477 388.557 159.13 388.95C158.79 389.337 158.62 389.84 158.62 390.46L157.48 389.66C157.48 388.953 157.657 388.32 158.01 387.76C158.363 387.2 158.837 386.757 159.43 386.43C160.03 386.103 160.7 385.94 161.44 385.94C162.287 385.94 162.98 386.12 163.52 386.48C164.067 386.84 164.47 387.32 164.73 387.92C164.99 388.52 165.12 389.18 165.12 389.9V397H162.4Z" fill="#696969"/>
<path d="M83.84 507.3C82.7733 507.3 81.81 507.113 80.95 506.74C80.0967 506.36 79.3933 505.82 78.84 505.12C78.2933 504.413 77.9467 503.573 77.8 502.6L80.64 502.18C80.84 503.007 81.2533 503.643 81.88 504.09C82.5067 504.537 83.22 504.76 84.02 504.76C84.4667 504.76 84.9 504.69 85.32 504.55C85.74 504.41 86.0833 504.203 86.35 503.93C86.6233 503.657 86.76 503.32 86.76 502.92C86.76 502.773 86.7367 502.633 86.69 502.5C86.65 502.36 86.58 502.23 86.48 502.11C86.38 501.99 86.2367 501.877 86.05 501.77C85.87 501.663 85.64 501.567 85.36 501.48L81.62 500.38C81.34 500.3 81.0133 500.187 80.64 500.04C80.2733 499.893 79.9167 499.683 79.57 499.41C79.2233 499.137 78.9333 498.777 78.7 498.33C78.4733 497.877 78.36 497.307 78.36 496.62C78.36 495.653 78.6033 494.85 79.09 494.21C79.5767 493.57 80.2267 493.093 81.04 492.78C81.8533 492.467 82.7533 492.313 83.74 492.32C84.7333 492.333 85.62 492.503 86.4 492.83C87.18 493.157 87.8333 493.633 88.36 494.26C88.8867 494.88 89.2667 495.64 89.5 496.54L86.56 497.04C86.4533 496.573 86.2567 496.18 85.97 495.86C85.6833 495.54 85.34 495.297 84.94 495.13C84.5467 494.963 84.1333 494.873 83.7 494.86C83.2733 494.847 82.87 494.907 82.49 495.04C82.1167 495.167 81.81 495.353 81.57 495.6C81.3367 495.847 81.22 496.14 81.22 496.48C81.22 496.793 81.3167 497.05 81.51 497.25C81.7033 497.443 81.9467 497.6 82.24 497.72C82.5333 497.84 82.8333 497.94 83.14 498.02L85.64 498.7C86.0133 498.8 86.4267 498.933 86.88 499.1C87.3333 499.26 87.7667 499.487 88.18 499.78C88.6 500.067 88.9433 500.447 89.21 500.92C89.4833 501.393 89.62 501.993 89.62 502.72C89.62 503.493 89.4567 504.17 89.13 504.75C88.81 505.323 88.3767 505.8 87.83 506.18C87.2833 506.553 86.6633 506.833 85.97 507.02C85.2833 507.207 84.5733 507.3 83.84 507.3ZM96.838 507.3C95.7313 507.3 94.7546 507.063 93.908 506.59C93.068 506.11 92.408 505.453 91.928 504.62C91.4546 503.78 91.218 502.82 91.218 501.74C91.218 500.56 91.4513 499.533 91.918 498.66C92.3846 497.787 93.028 497.11 93.848 496.63C94.668 496.143 95.6113 495.9 96.678 495.9C97.8113 495.9 98.7746 496.167 99.568 496.7C100.361 497.233 100.948 497.983 101.328 498.95C101.708 499.917 101.841 501.053 101.728 502.36H99.038V501.36C99.038 500.26 98.8613 499.47 98.508 498.99C98.1613 498.503 97.5913 498.26 96.798 498.26C95.8713 498.26 95.188 498.543 94.748 499.11C94.3146 499.67 94.098 500.5 94.098 501.6C94.098 502.607 94.3146 503.387 94.748 503.94C95.188 504.487 95.8313 504.76 96.678 504.76C97.2113 504.76 97.668 504.643 98.048 504.41C98.428 504.177 98.718 503.84 98.918 503.4L101.638 504.18C101.231 505.167 100.588 505.933 99.708 506.48C98.8346 507.027 97.878 507.3 96.838 507.3ZM93.258 502.36V500.34H100.418V502.36H93.258ZM110.466 507C109.719 507.14 108.986 507.2 108.266 507.18C107.553 507.167 106.913 507.043 106.346 506.81C105.786 506.57 105.359 506.187 105.066 505.66C104.799 505.167 104.659 504.667 104.646 504.16C104.633 503.647 104.626 503.067 104.626 502.42V493.2H107.346V502.26C107.346 502.68 107.349 503.06 107.356 503.4C107.369 503.733 107.439 504 107.566 504.2C107.806 504.58 108.189 504.787 108.716 504.82C109.243 504.853 109.826 504.827 110.466 504.74V507ZM102.786 498.3V496.2H110.466V498.3H102.786ZM118.146 507C117.399 507.14 116.666 507.2 115.946 507.18C115.233 507.167 114.593 507.043 114.026 506.81C113.466 506.57 113.039 506.187 112.746 505.66C112.479 505.167 112.339 504.667 112.326 504.16C112.313 503.647 112.306 503.067 112.306 502.42V493.2H115.026V502.26C115.026 502.68 115.029 503.06 115.036 503.4C115.049 503.733 115.119 504 115.246 504.2C115.486 504.58 115.869 504.787 116.396 504.82C116.923 504.853 117.506 504.827 118.146 504.74V507ZM110.466 498.3V496.2H118.146V498.3H110.466ZM120.748 494.7V492.3H123.468V494.7H120.748ZM120.748 507V496.2H123.468V507H120.748ZM133.826 507V501.9C133.826 501.653 133.813 501.34 133.786 500.96C133.76 500.573 133.676 500.187 133.536 499.8C133.396 499.413 133.166 499.09 132.846 498.83C132.533 498.57 132.086 498.44 131.506 498.44C131.273 498.44 131.023 498.477 130.756 498.55C130.49 498.623 130.24 498.767 130.006 498.98C129.773 499.187 129.58 499.493 129.426 499.9C129.28 500.307 129.206 500.847 129.206 501.52L127.646 500.78C127.646 499.927 127.82 499.127 128.166 498.38C128.513 497.633 129.033 497.03 129.726 496.57C130.426 496.11 131.306 495.88 132.366 495.88C133.213 495.88 133.903 496.023 134.436 496.31C134.97 496.597 135.383 496.96 135.676 497.4C135.976 497.84 136.19 498.3 136.316 498.78C136.443 499.253 136.52 499.687 136.546 500.08C136.573 500.473 136.586 500.76 136.586 500.94V507H133.826ZM126.446 507V496.2H128.866V499.78H129.206V507H126.446ZM143.801 512.1C143.188 512.1 142.605 512 142.051 511.8C141.498 511.607 141.001 511.333 140.561 510.98C140.128 510.633 139.775 510.227 139.501 509.76L142.021 508.54C142.195 508.86 142.441 509.103 142.761 509.27C143.088 509.437 143.441 509.52 143.821 509.52C144.228 509.52 144.611 509.45 144.971 509.31C145.331 509.177 145.618 508.973 145.831 508.7C146.051 508.433 146.155 508.1 146.141 507.7V504.56H146.481V496.2H148.861V507.74C148.861 508.007 148.848 508.257 148.821 508.49C148.801 508.73 148.761 508.967 148.701 509.2C148.528 509.86 148.205 510.403 147.731 510.83C147.265 511.257 146.691 511.573 146.011 511.78C145.331 511.993 144.595 512.1 143.801 512.1ZM143.561 507.3C142.568 507.3 141.698 507.05 140.951 506.55C140.205 506.05 139.621 505.37 139.201 504.51C138.788 503.65 138.581 502.68 138.581 501.6C138.581 500.5 138.791 499.523 139.211 498.67C139.638 497.81 140.235 497.133 141.001 496.64C141.768 496.147 142.668 495.9 143.701 495.9C144.728 495.9 145.591 496.15 146.291 496.65C146.991 497.15 147.521 497.83 147.881 498.69C148.241 499.55 148.421 500.52 148.421 501.6C148.421 502.68 148.238 503.65 147.871 504.51C147.511 505.37 146.971 506.05 146.251 506.55C145.531 507.05 144.635 507.3 143.561 507.3ZM144.001 504.88C144.608 504.88 145.091 504.743 145.451 504.47C145.818 504.197 146.081 503.813 146.241 503.32C146.401 502.827 146.481 502.253 146.481 501.6C146.481 500.947 146.401 500.373 146.241 499.88C146.081 499.387 145.825 499.003 145.471 498.73C145.125 498.457 144.668 498.32 144.101 498.32C143.495 498.32 142.995 498.47 142.601 498.77C142.215 499.063 141.928 499.46 141.741 499.96C141.555 500.453 141.461 501 141.461 501.6C141.461 502.207 141.551 502.76 141.731 503.26C141.911 503.753 142.188 504.147 142.561 504.44C142.935 504.733 143.415 504.88 144.001 504.88ZM155.882 507.3C154.522 507.3 153.422 506.993 152.582 506.38C151.748 505.76 151.242 504.887 151.062 503.76L153.842 503.34C153.955 503.847 154.205 504.243 154.592 504.53C154.985 504.817 155.482 504.96 156.082 504.96C156.575 504.96 156.955 504.867 157.222 504.68C157.488 504.487 157.622 504.22 157.622 503.88C157.622 503.667 157.568 503.497 157.462 503.37C157.355 503.237 157.115 503.107 156.742 502.98C156.375 502.853 155.802 502.687 155.022 502.48C154.142 502.253 153.438 502 152.912 501.72C152.385 501.44 152.005 501.107 151.772 500.72C151.538 500.327 151.422 499.853 151.422 499.3C151.422 498.607 151.598 498.007 151.952 497.5C152.305 496.987 152.802 496.593 153.442 496.32C154.088 496.04 154.848 495.9 155.722 495.9C156.568 495.9 157.318 496.03 157.972 496.29C158.625 496.55 159.152 496.92 159.552 497.4C159.958 497.88 160.208 498.447 160.302 499.1L157.522 499.6C157.475 499.2 157.302 498.883 157.002 498.65C156.702 498.417 156.295 498.28 155.782 498.24C155.282 498.207 154.878 498.273 154.572 498.44C154.272 498.607 154.122 498.847 154.122 499.16C154.122 499.347 154.185 499.503 154.312 499.63C154.445 499.757 154.715 499.887 155.122 500.02C155.535 500.153 156.162 500.327 157.002 500.54C157.822 500.753 158.478 501.003 158.972 501.29C159.472 501.57 159.835 501.91 160.062 502.31C160.288 502.703 160.402 503.18 160.402 503.74C160.402 504.847 160.002 505.717 159.202 506.35C158.402 506.983 157.295 507.3 155.882 507.3Z" fill="#696969"/>
<path d="M86.84 571.3C85.7733 571.3 84.81 571.113 83.95 570.74C83.0967 570.36 82.3933 569.82 81.84 569.12C81.2933 568.413 80.9467 567.573 80.8 566.6L83.64 566.18C83.84 567.007 84.2533 567.643 84.88 568.09C85.5067 568.537 86.22 568.76 87.02 568.76C87.4667 568.76 87.9 568.69 88.32 568.55C88.74 568.41 89.0833 568.203 89.35 567.93C89.6233 567.657 89.76 567.32 89.76 566.92C89.76 566.773 89.7367 566.633 89.69 566.5C89.65 566.36 89.58 566.23 89.48 566.11C89.38 565.99 89.2367 565.877 89.05 565.77C88.87 565.663 88.64 565.567 88.36 565.48L84.62 564.38C84.34 564.3 84.0133 564.187 83.64 564.04C83.2733 563.893 82.9167 563.683 82.57 563.41C82.2233 563.137 81.9333 562.777 81.7 562.33C81.4733 561.877 81.36 561.307 81.36 560.62C81.36 559.653 81.6033 558.85 82.09 558.21C82.5767 557.57 83.2267 557.093 84.04 556.78C84.8533 556.467 85.7533 556.313 86.74 556.32C87.7333 556.333 88.62 556.503 89.4 556.83C90.18 557.157 90.8333 557.633 91.36 558.26C91.8867 558.88 92.2667 559.64 92.5 560.54L89.56 561.04C89.4533 560.573 89.2567 560.18 88.97 559.86C88.6833 559.54 88.34 559.297 87.94 559.13C87.5467 558.963 87.1333 558.873 86.7 558.86C86.2733 558.847 85.87 558.907 85.49 559.04C85.1167 559.167 84.81 559.353 84.57 559.6C84.3367 559.847 84.22 560.14 84.22 560.48C84.22 560.793 84.3167 561.05 84.51 561.25C84.7033 561.443 84.9467 561.6 85.24 561.72C85.5333 561.84 85.8333 561.94 86.14 562.02L88.64 562.7C89.0133 562.8 89.4267 562.933 89.88 563.1C90.3333 563.26 90.7667 563.487 91.18 563.78C91.6 564.067 91.9433 564.447 92.21 564.92C92.4833 565.393 92.62 565.993 92.62 566.72C92.62 567.493 92.4567 568.17 92.13 568.75C91.81 569.323 91.3767 569.8 90.83 570.18C90.2833 570.553 89.6633 570.833 88.97 571.02C88.2833 571.207 87.5733 571.3 86.84 571.3ZM98.838 571.32C97.9913 571.32 97.3013 571.177 96.768 570.89C96.2346 570.603 95.818 570.24 95.518 569.8C95.2246 569.36 95.0146 568.903 94.888 568.43C94.7613 567.95 94.6846 567.513 94.658 567.12C94.6313 566.727 94.618 566.44 94.618 566.26V560.2H97.378V565.3C97.378 565.547 97.3913 565.863 97.418 566.25C97.4446 566.63 97.528 567.013 97.668 567.4C97.808 567.787 98.0346 568.11 98.348 568.37C98.668 568.63 99.118 568.76 99.698 568.76C99.9313 568.76 100.181 568.723 100.448 568.65C100.715 568.577 100.965 568.437 101.198 568.23C101.431 568.017 101.621 567.707 101.768 567.3C101.921 566.887 101.998 566.347 101.998 565.68L103.558 566.42C103.558 567.273 103.385 568.073 103.038 568.82C102.691 569.567 102.168 570.17 101.468 570.63C100.775 571.09 99.898 571.32 98.838 571.32ZM102.338 571V567.42H101.998V560.2H104.738V571H102.338ZM112.833 571.3C111.759 571.3 110.863 571.05 110.143 570.55C109.423 570.05 108.879 569.37 108.513 568.51C108.153 567.65 107.973 566.68 107.973 565.6C107.973 564.52 108.153 563.55 108.513 562.69C108.873 561.83 109.403 561.15 110.103 560.65C110.803 560.15 111.666 559.9 112.693 559.9C113.726 559.9 114.626 560.147 115.393 560.64C116.159 561.133 116.753 561.81 117.173 562.67C117.599 563.523 117.813 564.5 117.813 565.6C117.813 566.68 117.603 567.65 117.183 568.51C116.769 569.37 116.189 570.05 115.443 570.55C114.696 571.05 113.826 571.3 112.833 571.3ZM107.513 575.8V560.2H109.913V567.6H110.253V575.8H107.513ZM112.393 568.88C112.979 568.88 113.459 568.733 113.833 568.44C114.206 568.147 114.483 567.753 114.663 567.26C114.843 566.76 114.933 566.207 114.933 565.6C114.933 565 114.839 564.453 114.653 563.96C114.466 563.46 114.176 563.063 113.783 562.77C113.396 562.47 112.899 562.32 112.293 562.32C111.726 562.32 111.266 562.457 110.913 562.73C110.566 563.003 110.313 563.387 110.153 563.88C109.993 564.373 109.913 564.947 109.913 565.6C109.913 566.253 109.993 566.827 110.153 567.32C110.313 567.813 110.573 568.197 110.933 568.47C111.299 568.743 111.786 568.88 112.393 568.88ZM125.313 571.3C124.24 571.3 123.343 571.05 122.623 570.55C121.903 570.05 121.36 569.37 120.993 568.51C120.633 567.65 120.453 566.68 120.453 565.6C120.453 564.52 120.633 563.55 120.993 562.69C121.353 561.83 121.883 561.15 122.583 560.65C123.283 560.15 124.147 559.9 125.173 559.9C126.207 559.9 127.107 560.147 127.873 560.64C128.64 561.133 129.233 561.81 129.653 562.67C130.08 563.523 130.293 564.5 130.293 565.6C130.293 566.68 130.083 567.65 129.663 568.51C129.25 569.37 128.67 570.05 127.923 570.55C127.177 571.05 126.307 571.3 125.313 571.3ZM119.993 575.8V560.2H122.393V567.6H122.733V575.8H119.993ZM124.873 568.88C125.46 568.88 125.94 568.733 126.313 568.44C126.687 568.147 126.963 567.753 127.143 567.26C127.323 566.76 127.413 566.207 127.413 565.6C127.413 565 127.32 564.453 127.133 563.96C126.947 563.46 126.657 563.063 126.263 562.77C125.877 562.47 125.38 562.32 124.773 562.32C124.207 562.32 123.747 562.457 123.393 562.73C123.047 563.003 122.793 563.387 122.633 563.88C122.473 564.373 122.393 564.947 122.393 565.6C122.393 566.253 122.473 566.827 122.633 567.32C122.793 567.813 123.053 568.197 123.413 568.47C123.78 568.743 124.267 568.88 124.873 568.88ZM137.354 571.3C136.267 571.3 135.314 571.057 134.494 570.57C133.674 570.083 133.034 569.413 132.574 568.56C132.12 567.7 131.894 566.713 131.894 565.6C131.894 564.473 132.127 563.483 132.594 562.63C133.06 561.77 133.704 561.1 134.524 560.62C135.344 560.14 136.287 559.9 137.354 559.9C138.44 559.9 139.394 560.143 140.214 560.63C141.04 561.117 141.684 561.79 142.144 562.65C142.604 563.503 142.834 564.487 142.834 565.6C142.834 566.72 142.6 567.71 142.134 568.57C141.674 569.423 141.03 570.093 140.204 570.58C139.384 571.06 138.434 571.3 137.354 571.3ZM137.354 568.76C138.227 568.76 138.877 568.467 139.304 567.88C139.737 567.287 139.954 566.527 139.954 565.6C139.954 564.64 139.734 563.873 139.294 563.3C138.86 562.727 138.214 562.44 137.354 562.44C136.76 562.44 136.274 562.573 135.894 562.84C135.514 563.107 135.23 563.477 135.044 563.95C134.864 564.423 134.774 564.973 134.774 565.6C134.774 566.567 134.99 567.337 135.424 567.91C135.864 568.477 136.507 568.76 137.354 568.76ZM145.033 571V560.2H147.433V562.84L147.173 562.5C147.313 562.127 147.499 561.787 147.733 561.48C147.966 561.173 148.253 560.92 148.593 560.72C148.853 560.56 149.136 560.437 149.443 560.35C149.749 560.257 150.066 560.2 150.393 560.18C150.719 560.153 151.046 560.16 151.373 560.2V562.74C151.073 562.647 150.723 562.617 150.323 562.65C149.929 562.677 149.573 562.767 149.253 562.92C148.933 563.067 148.663 563.263 148.443 563.51C148.223 563.75 148.056 564.037 147.943 564.37C147.829 564.697 147.773 565.067 147.773 565.48V571H145.033ZM159.755 571C159.008 571.14 158.275 571.2 157.555 571.18C156.842 571.167 156.202 571.043 155.635 570.81C155.075 570.57 154.648 570.187 154.355 569.66C154.088 569.167 153.948 568.667 153.935 568.16C153.922 567.647 153.915 567.067 153.915 566.42V557.2H156.635V566.26C156.635 566.68 156.638 567.06 156.645 567.4C156.658 567.733 156.728 568 156.855 568.2C157.095 568.58 157.478 568.787 158.005 568.82C158.532 568.853 159.115 568.827 159.755 568.74V571ZM152.075 562.3V560.2H159.755V562.3H152.075Z" fill="#696969"/>
<path d="M13 169C13 162.373 18.3726 157 25 157H282C288.627 157 294 162.373 294 169V213C294 219.627 288.627 225 282 225H25C18.3726 225 13 219.627 13 213V169Z" fill="#E8EFFB"/>
<path d="M67.4 269L71.8 254.6H75.86L80.26 269H77.46L73.54 256.3H74.06L70.2 269H67.4ZM70.04 266V263.46H77.64V266H70.04ZM86.2723 269.3C84.9123 269.3 83.8123 268.993 82.9723 268.38C82.139 267.76 81.6323 266.887 81.4523 265.76L84.2323 265.34C84.3457 265.847 84.5957 266.243 84.9823 266.53C85.3757 266.817 85.8723 266.96 86.4723 266.96C86.9657 266.96 87.3457 266.867 87.6123 266.68C87.879 266.487 88.0123 266.22 88.0123 265.88C88.0123 265.667 87.959 265.497 87.8523 265.37C87.7457 265.237 87.5057 265.107 87.1323 264.98C86.7657 264.853 86.1923 264.687 85.4123 264.48C84.5323 264.253 83.829 264 83.3023 263.72C82.7757 263.44 82.3957 263.107 82.1623 262.72C81.929 262.327 81.8123 261.853 81.8123 261.3C81.8123 260.607 81.989 260.007 82.3423 259.5C82.6957 258.987 83.1923 258.593 83.8323 258.32C84.479 258.04 85.239 257.9 86.1123 257.9C86.959 257.9 87.709 258.03 88.3623 258.29C89.0157 258.55 89.5423 258.92 89.9423 259.4C90.349 259.88 90.599 260.447 90.6923 261.1L87.9123 261.6C87.8657 261.2 87.6923 260.883 87.3923 260.65C87.0923 260.417 86.6857 260.28 86.1723 260.24C85.6723 260.207 85.269 260.273 84.9623 260.44C84.6623 260.607 84.5123 260.847 84.5123 261.16C84.5123 261.347 84.5757 261.503 84.7023 261.63C84.8357 261.757 85.1057 261.887 85.5123 262.02C85.9257 262.153 86.5523 262.327 87.3923 262.54C88.2123 262.753 88.869 263.003 89.3623 263.29C89.8623 263.57 90.2257 263.91 90.4523 264.31C90.679 264.703 90.7923 265.18 90.7923 265.74C90.7923 266.847 90.3923 267.717 89.5923 268.35C88.7923 268.983 87.6857 269.3 86.2723 269.3ZM97.2098 269.3C95.8498 269.3 94.7498 268.993 93.9098 268.38C93.0765 267.76 92.5698 266.887 92.3898 265.76L95.1698 265.34C95.2832 265.847 95.5332 266.243 95.9198 266.53C96.3132 266.817 96.8098 266.96 97.4098 266.96C97.9032 266.96 98.2832 266.867 98.5498 266.68C98.8165 266.487 98.9498 266.22 98.9498 265.88C98.9498 265.667 98.8965 265.497 98.7898 265.37C98.6832 265.237 98.4432 265.107 98.0698 264.98C97.7032 264.853 97.1298 264.687 96.3498 264.48C95.4698 264.253 94.7665 264 94.2398 263.72C93.7132 263.44 93.3332 263.107 93.0998 262.72C92.8665 262.327 92.7498 261.853 92.7498 261.3C92.7498 260.607 92.9265 260.007 93.2798 259.5C93.6332 258.987 94.1298 258.593 94.7698 258.32C95.4165 258.04 96.1765 257.9 97.0498 257.9C97.8965 257.9 98.6465 258.03 99.2998 258.29C99.9532 258.55 100.48 258.92 100.88 259.4C101.287 259.88 101.537 260.447 101.63 261.1L98.8498 261.6C98.8032 261.2 98.6298 260.883 98.3298 260.65C98.0298 260.417 97.6232 260.28 97.1098 260.24C96.6098 260.207 96.2065 260.273 95.8998 260.44C95.5998 260.607 95.4498 260.847 95.4498 261.16C95.4498 261.347 95.5132 261.503 95.6398 261.63C95.7732 261.757 96.0432 261.887 96.4498 262.02C96.8632 262.153 97.4898 262.327 98.3298 262.54C99.1498 262.753 99.8065 263.003 100.3 263.29C100.8 263.57 101.163 263.91 101.39 264.31C101.617 264.703 101.73 265.18 101.73 265.74C101.73 266.847 101.33 267.717 100.53 268.35C99.7298 268.983 98.6232 269.3 97.2098 269.3ZM104.127 256.7V254.3H106.847V256.7H104.127ZM104.127 269V258.2H106.847V269H104.127ZM114.465 274.1C113.852 274.1 113.269 274 112.715 273.8C112.162 273.607 111.665 273.333 111.225 272.98C110.792 272.633 110.439 272.227 110.165 271.76L112.685 270.54C112.859 270.86 113.105 271.103 113.425 271.27C113.752 271.437 114.105 271.52 114.485 271.52C114.892 271.52 115.275 271.45 115.635 271.31C115.995 271.177 116.282 270.973 116.495 270.7C116.715 270.433 116.819 270.1 116.805 269.7V266.56H117.145V258.2H119.525V269.74C119.525 270.007 119.512 270.257 119.485 270.49C119.465 270.73 119.425 270.967 119.365 271.2C119.192 271.86 118.869 272.403 118.395 272.83C117.929 273.257 117.355 273.573 116.675 273.78C115.995 273.993 115.259 274.1 114.465 274.1ZM114.225 269.3C113.232 269.3 112.362 269.05 111.615 268.55C110.869 268.05 110.285 267.37 109.865 266.51C109.452 265.65 109.245 264.68 109.245 263.6C109.245 262.5 109.455 261.523 109.875 260.67C110.302 259.81 110.899 259.133 111.665 258.64C112.432 258.147 113.332 257.9 114.365 257.9C115.392 257.9 116.255 258.15 116.955 258.65C117.655 259.15 118.185 259.83 118.545 260.69C118.905 261.55 119.085 262.52 119.085 263.6C119.085 264.68 118.902 265.65 118.535 266.51C118.175 267.37 117.635 268.05 116.915 268.55C116.195 269.05 115.299 269.3 114.225 269.3ZM114.665 266.88C115.272 266.88 115.755 266.743 116.115 266.47C116.482 266.197 116.745 265.813 116.905 265.32C117.065 264.827 117.145 264.253 117.145 263.6C117.145 262.947 117.065 262.373 116.905 261.88C116.745 261.387 116.489 261.003 116.135 260.73C115.789 260.457 115.332 260.32 114.765 260.32C114.159 260.32 113.659 260.47 113.265 260.77C112.879 261.063 112.592 261.46 112.405 261.96C112.219 262.453 112.125 263 112.125 263.6C112.125 264.207 112.215 264.76 112.395 265.26C112.575 265.753 112.852 266.147 113.225 266.44C113.599 266.733 114.079 266.88 114.665 266.88ZM129.686 269V263.9C129.686 263.653 129.672 263.34 129.646 262.96C129.619 262.573 129.536 262.187 129.396 261.8C129.256 261.413 129.026 261.09 128.706 260.83C128.392 260.57 127.946 260.44 127.366 260.44C127.132 260.44 126.882 260.477 126.616 260.55C126.349 260.623 126.099 260.767 125.866 260.98C125.632 261.187 125.439 261.493 125.286 261.9C125.139 262.307 125.066 262.847 125.066 263.52L123.506 262.78C123.506 261.927 123.679 261.127 124.026 260.38C124.372 259.633 124.892 259.03 125.586 258.57C126.286 258.11 127.166 257.88 128.226 257.88C129.072 257.88 129.762 258.023 130.296 258.31C130.829 258.597 131.242 258.96 131.536 259.4C131.836 259.84 132.049 260.3 132.176 260.78C132.302 261.253 132.379 261.687 132.406 262.08C132.432 262.473 132.446 262.76 132.446 262.94V269H129.686ZM122.306 269V258.2H124.726V261.78H125.066V269H122.306ZM148.041 269V262.62C148.041 261.907 147.871 261.353 147.531 260.96C147.197 260.56 146.734 260.36 146.141 260.36C145.761 260.36 145.431 260.45 145.151 260.63C144.871 260.803 144.651 261.05 144.491 261.37C144.337 261.683 144.261 262.047 144.261 262.46L143.121 261.7C143.121 260.96 143.294 260.307 143.641 259.74C143.994 259.173 144.464 258.733 145.051 258.42C145.644 258.1 146.301 257.94 147.021 257.94C148.254 257.94 149.184 258.307 149.811 259.04C150.444 259.767 150.761 260.72 150.761 261.9V269H148.041ZM135.021 269V258.2H137.421V261.78H137.761V269H135.021ZM141.541 269V262.62C141.541 261.907 141.371 261.353 141.031 260.96C140.697 260.56 140.234 260.36 139.641 260.36C139.074 260.36 138.617 260.557 138.271 260.95C137.931 261.337 137.761 261.84 137.761 262.46L136.621 261.66C136.621 260.953 136.797 260.32 137.151 259.76C137.504 259.2 137.977 258.757 138.571 258.43C139.171 258.103 139.841 257.94 140.581 257.94C141.427 257.94 142.121 258.12 142.661 258.48C143.207 258.84 143.611 259.32 143.871 259.92C144.131 260.52 144.261 261.18 144.261 261.9V269H141.541ZM158.186 269.3C157.079 269.3 156.102 269.063 155.256 268.59C154.416 268.11 153.756 267.453 153.276 266.62C152.802 265.78 152.566 264.82 152.566 263.74C152.566 262.56 152.799 261.533 153.266 260.66C153.732 259.787 154.376 259.11 155.196 258.63C156.016 258.143 156.959 257.9 158.026 257.9C159.159 257.9 160.122 258.167 160.916 258.7C161.709 259.233 162.296 259.983 162.676 260.95C163.056 261.917 163.189 263.053 163.076 264.36H160.386V263.36C160.386 262.26 160.209 261.47 159.856 260.99C159.509 260.503 158.939 260.26 158.146 260.26C157.219 260.26 156.536 260.543 156.096 261.11C155.662 261.67 155.446 262.5 155.446 263.6C155.446 264.607 155.662 265.387 156.096 265.94C156.536 266.487 157.179 266.76 158.026 266.76C158.559 266.76 159.016 266.643 159.396 266.41C159.776 266.177 160.066 265.84 160.266 265.4L162.986 266.18C162.579 267.167 161.936 267.933 161.056 268.48C160.182 269.027 159.226 269.3 158.186 269.3ZM154.606 264.36V262.34H161.766V264.36H154.606ZM172.401 269V263.9C172.401 263.653 172.387 263.34 172.361 262.96C172.334 262.573 172.251 262.187 172.111 261.8C171.971 261.413 171.741 261.09 171.421 260.83C171.107 260.57 170.661 260.44 170.081 260.44C169.847 260.44 169.597 260.477 169.331 260.55C169.064 260.623 168.814 260.767 168.581 260.98C168.347 261.187 168.154 261.493 168.001 261.9C167.854 262.307 167.781 262.847 167.781 263.52L166.221 262.78C166.221 261.927 166.394 261.127 166.741 260.38C167.087 259.633 167.607 259.03 168.301 258.57C169.001 258.11 169.881 257.88 170.941 257.88C171.787 257.88 172.477 258.023 173.011 258.31C173.544 258.597 173.957 258.96 174.251 259.4C174.551 259.84 174.764 260.3 174.891 260.78C175.017 261.253 175.094 261.687 175.121 262.08C175.147 262.473 175.161 262.76 175.161 262.94V269H172.401ZM165.021 269V258.2H167.441V261.78H167.781V269H165.021ZM184.235 269C183.489 269.14 182.755 269.2 182.035 269.18C181.322 269.167 180.682 269.043 180.115 268.81C179.555 268.57 179.129 268.187 178.835 267.66C178.569 267.167 178.429 266.667 178.415 266.16C178.402 265.647 178.395 265.067 178.395 264.42V255.2H181.115V264.26C181.115 264.68 181.119 265.06 181.125 265.4C181.139 265.733 181.209 266 181.335 266.2C181.575 266.58 181.959 266.787 182.485 266.82C183.012 266.853 183.595 266.827 184.235 266.74V269ZM176.555 260.3V258.2H184.235V260.3H176.555ZM190.862 269.3C189.502 269.3 188.402 268.993 187.562 268.38C186.729 267.76 186.222 266.887 186.042 265.76L188.822 265.34C188.936 265.847 189.186 266.243 189.572 266.53C189.966 266.817 190.462 266.96 191.062 266.96C191.556 266.96 191.936 266.867 192.202 266.68C192.469 266.487 192.602 266.22 192.602 265.88C192.602 265.667 192.549 265.497 192.442 265.37C192.336 265.237 192.096 265.107 191.722 264.98C191.356 264.853 190.782 264.687 190.002 264.48C189.122 264.253 188.419 264 187.892 263.72C187.366 263.44 186.986 263.107 186.752 262.72C186.519 262.327 186.402 261.853 186.402 261.3C186.402 260.607 186.579 260.007 186.932 259.5C187.286 258.987 187.782 258.593 188.422 258.32C189.069 258.04 189.829 257.9 190.702 257.9C191.549 257.9 192.299 258.03 192.952 258.29C193.606 258.55 194.132 258.92 194.532 259.4C194.939 259.88 195.189 260.447 195.282 261.1L192.502 261.6C192.456 261.2 192.282 260.883 191.982 260.65C191.682 260.417 191.276 260.28 190.762 260.24C190.262 260.207 189.859 260.273 189.552 260.44C189.252 260.607 189.102 260.847 189.102 261.16C189.102 261.347 189.166 261.503 189.292 261.63C189.426 261.757 189.696 261.887 190.102 262.02C190.516 262.153 191.142 262.327 191.982 262.54C192.802 262.753 193.459 263.003 193.952 263.29C194.452 263.57 194.816 263.91 195.042 264.31C195.269 264.703 195.382 265.18 195.382 265.74C195.382 266.847 194.982 267.717 194.182 268.35C193.382 268.983 192.276 269.3 190.862 269.3Z" fill="#696969"/>
<path d="M68.4 199V184.6H73.06C73.1733 184.6 73.4067 184.603 73.76 184.61C74.1133 184.617 74.4533 184.64 74.78 184.68C75.94 184.82 76.9233 185.223 77.73 185.89C78.5367 186.557 79.15 187.403 79.57 188.43C79.99 189.457 80.2 190.58 80.2 191.8C80.2 193.02 79.99 194.143 79.57 195.17C79.15 196.197 78.5367 197.043 77.73 197.71C76.9233 198.377 75.94 198.78 74.78 198.92C74.4533 198.96 74.1133 198.983 73.76 198.99C73.4067 198.997 73.1733 199 73.06 199H68.4ZM71.16 196.44H73.06C73.24 196.44 73.4833 196.437 73.79 196.43C74.0967 196.417 74.3733 196.387 74.62 196.34C75.2467 196.213 75.7567 195.92 76.15 195.46C76.55 195 76.8433 194.447 77.03 193.8C77.2233 193.153 77.32 192.487 77.32 191.8C77.32 191.08 77.22 190.397 77.02 189.75C76.8267 189.103 76.53 188.557 76.13 188.11C75.73 187.663 75.2267 187.38 74.62 187.26C74.3733 187.207 74.0967 187.177 73.79 187.17C73.4833 187.163 73.24 187.16 73.06 187.16H71.16V196.44ZM85.5992 199.3C84.8259 199.3 84.1692 199.153 83.6292 198.86C83.0959 198.56 82.6892 198.163 82.4092 197.67C82.1359 197.17 81.9992 196.62 81.9992 196.02C81.9992 195.52 82.0759 195.063 82.2292 194.65C82.3826 194.237 82.6292 193.873 82.9692 193.56C83.3159 193.24 83.7792 192.973 84.3592 192.76C84.7592 192.613 85.2359 192.483 85.7892 192.37C86.3426 192.257 86.9692 192.15 87.6692 192.05C88.3692 191.943 89.1392 191.827 89.9792 191.7L88.9992 192.24C88.9992 191.6 88.8459 191.13 88.5392 190.83C88.2326 190.53 87.7192 190.38 86.9992 190.38C86.5992 190.38 86.1826 190.477 85.7492 190.67C85.3159 190.863 85.0126 191.207 84.8392 191.7L82.3792 190.92C82.6526 190.027 83.1659 189.3 83.9192 188.74C84.6726 188.18 85.6992 187.9 86.9992 187.9C87.9526 187.9 88.7992 188.047 89.5392 188.34C90.2792 188.633 90.8392 189.14 91.2192 189.86C91.4326 190.26 91.5592 190.66 91.5992 191.06C91.6392 191.46 91.6592 191.907 91.6592 192.4V199H89.2792V196.78L89.6192 197.24C89.0926 197.967 88.5226 198.493 87.9092 198.82C87.3026 199.14 86.5326 199.3 85.5992 199.3ZM86.1792 197.16C86.6792 197.16 87.0992 197.073 87.4392 196.9C87.7859 196.72 88.0592 196.517 88.2592 196.29C88.4659 196.063 88.6059 195.873 88.6792 195.72C88.8192 195.427 88.8992 195.087 88.9192 194.7C88.9459 194.307 88.9592 193.98 88.9592 193.72L89.7592 193.92C88.9526 194.053 88.2992 194.167 87.7992 194.26C87.2992 194.347 86.8959 194.427 86.5892 194.5C86.2826 194.573 86.0126 194.653 85.7792 194.74C85.5126 194.847 85.2959 194.963 85.1292 195.09C84.9692 195.21 84.8492 195.343 84.7692 195.49C84.6959 195.637 84.6592 195.8 84.6592 195.98C84.6592 196.227 84.7192 196.44 84.8392 196.62C84.9659 196.793 85.1426 196.927 85.3692 197.02C85.5959 197.113 85.8659 197.16 86.1792 197.16ZM98.4794 199.3C97.1194 199.3 96.0194 198.993 95.1794 198.38C94.346 197.76 93.8394 196.887 93.6594 195.76L96.4394 195.34C96.5527 195.847 96.8027 196.243 97.1894 196.53C97.5827 196.817 98.0794 196.96 98.6794 196.96C99.1727 196.96 99.5527 196.867 99.8194 196.68C100.086 196.487 100.219 196.22 100.219 195.88C100.219 195.667 100.166 195.497 100.059 195.37C99.9527 195.237 99.7127 195.107 99.3394 194.98C98.9727 194.853 98.3994 194.687 97.6194 194.48C96.7394 194.253 96.036 194 95.5094 193.72C94.9827 193.44 94.6027 193.107 94.3694 192.72C94.136 192.327 94.0194 191.853 94.0194 191.3C94.0194 190.607 94.196 190.007 94.5494 189.5C94.9027 188.987 95.3994 188.593 96.0394 188.32C96.686 188.04 97.446 187.9 98.3194 187.9C99.166 187.9 99.916 188.03 100.569 188.29C101.223 188.55 101.749 188.92 102.149 189.4C102.556 189.88 102.806 190.447 102.899 191.1L100.119 191.6C100.073 191.2 99.8994 190.883 99.5994 190.65C99.2994 190.417 98.8927 190.28 98.3794 190.24C97.8794 190.207 97.476 190.273 97.1694 190.44C96.8694 190.607 96.7194 190.847 96.7194 191.16C96.7194 191.347 96.7827 191.503 96.9094 191.63C97.0427 191.757 97.3127 191.887 97.7194 192.02C98.1327 192.153 98.7594 192.327 99.5994 192.54C100.419 192.753 101.076 193.003 101.569 193.29C102.069 193.57 102.433 193.91 102.659 194.31C102.886 194.703 102.999 195.18 102.999 195.74C102.999 196.847 102.599 197.717 101.799 198.35C100.999 198.983 99.8927 199.3 98.4794 199.3ZM112.557 199V193.9C112.557 193.653 112.544 193.34 112.517 192.96C112.49 192.573 112.407 192.187 112.267 191.8C112.127 191.413 111.897 191.09 111.577 190.83C111.264 190.57 110.817 190.44 110.237 190.44C110.004 190.44 109.754 190.477 109.487 190.55C109.22 190.623 108.97 190.767 108.737 190.98C108.504 191.187 108.31 191.493 108.157 191.9C108.01 192.307 107.937 192.847 107.937 193.52L106.377 192.78C106.377 191.927 106.55 191.127 106.897 190.38C107.244 189.633 107.764 189.03 108.457 188.57C109.157 188.11 110.037 187.88 111.097 187.88C111.944 187.88 112.634 188.023 113.167 188.31C113.7 188.597 114.114 188.96 114.407 189.4C114.707 189.84 114.92 190.3 115.047 190.78C115.174 191.253 115.25 191.687 115.277 192.08C115.304 192.473 115.317 192.76 115.317 192.94V199H112.557ZM105.177 199V184.6H107.597V192H107.937V199H105.177ZM123.212 199.3C122.138 199.3 121.242 199.05 120.522 198.55C119.802 198.05 119.258 197.37 118.892 196.51C118.532 195.65 118.352 194.68 118.352 193.6C118.352 192.52 118.532 191.55 118.892 190.69C119.252 189.83 119.782 189.15 120.482 188.65C121.182 188.15 122.045 187.9 123.072 187.9C124.105 187.9 125.005 188.147 125.772 188.64C126.538 189.133 127.132 189.81 127.552 190.67C127.978 191.523 128.192 192.5 128.192 193.6C128.192 194.68 127.982 195.65 127.562 196.51C127.148 197.37 126.568 198.05 125.822 198.55C125.075 199.05 124.205 199.3 123.212 199.3ZM117.892 199V184.6H120.632V191.6H120.292V199H117.892ZM122.772 196.88C123.358 196.88 123.838 196.733 124.212 196.44C124.585 196.147 124.862 195.753 125.042 195.26C125.222 194.76 125.312 194.207 125.312 193.6C125.312 193 125.218 192.453 125.032 191.96C124.845 191.46 124.555 191.063 124.162 190.77C123.775 190.47 123.278 190.32 122.672 190.32C122.105 190.32 121.645 190.457 121.292 190.73C120.945 191.003 120.692 191.387 120.532 191.88C120.372 192.373 120.292 192.947 120.292 193.6C120.292 194.253 120.372 194.827 120.532 195.32C120.692 195.813 120.952 196.197 121.312 196.47C121.678 196.743 122.165 196.88 122.772 196.88ZM135.252 199.3C134.166 199.3 133.212 199.057 132.392 198.57C131.572 198.083 130.932 197.413 130.472 196.56C130.019 195.7 129.792 194.713 129.792 193.6C129.792 192.473 130.026 191.483 130.492 190.63C130.959 189.77 131.602 189.1 132.422 188.62C133.242 188.14 134.186 187.9 135.252 187.9C136.339 187.9 137.292 188.143 138.112 188.63C138.939 189.117 139.582 189.79 140.042 190.65C140.502 191.503 140.732 192.487 140.732 193.6C140.732 194.72 140.499 195.71 140.032 196.57C139.572 197.423 138.929 198.093 138.102 198.58C137.282 199.06 136.332 199.3 135.252 199.3ZM135.252 196.76C136.126 196.76 136.776 196.467 137.202 195.88C137.636 195.287 137.852 194.527 137.852 193.6C137.852 192.64 137.632 191.873 137.192 191.3C136.759 190.727 136.112 190.44 135.252 190.44C134.659 190.44 134.172 190.573 133.792 190.84C133.412 191.107 133.129 191.477 132.942 191.95C132.762 192.423 132.672 192.973 132.672 193.6C132.672 194.567 132.889 195.337 133.322 195.91C133.762 196.477 134.406 196.76 135.252 196.76ZM145.931 199.3C145.158 199.3 144.501 199.153 143.961 198.86C143.428 198.56 143.021 198.163 142.741 197.67C142.468 197.17 142.331 196.62 142.331 196.02C142.331 195.52 142.408 195.063 142.561 194.65C142.715 194.237 142.961 193.873 143.301 193.56C143.648 193.24 144.111 192.973 144.691 192.76C145.091 192.613 145.568 192.483 146.121 192.37C146.675 192.257 147.301 192.15 148.001 192.05C148.701 191.943 149.471 191.827 150.311 191.7L149.331 192.24C149.331 191.6 149.178 191.13 148.871 190.83C148.565 190.53 148.051 190.38 147.331 190.38C146.931 190.38 146.515 190.477 146.081 190.67C145.648 190.863 145.345 191.207 145.171 191.7L142.711 190.92C142.985 190.027 143.498 189.3 144.251 188.74C145.005 188.18 146.031 187.9 147.331 187.9C148.285 187.9 149.131 188.047 149.871 188.34C150.611 188.633 151.171 189.14 151.551 189.86C151.765 190.26 151.891 190.66 151.931 191.06C151.971 191.46 151.991 191.907 151.991 192.4V199H149.611V196.78L149.951 197.24C149.425 197.967 148.855 198.493 148.241 198.82C147.635 199.14 146.865 199.3 145.931 199.3ZM146.511 197.16C147.011 197.16 147.431 197.073 147.771 196.9C148.118 196.72 148.391 196.517 148.591 196.29C148.798 196.063 148.938 195.873 149.011 195.72C149.151 195.427 149.231 195.087 149.251 194.7C149.278 194.307 149.291 193.98 149.291 193.72L150.091 193.92C149.285 194.053 148.631 194.167 148.131 194.26C147.631 194.347 147.228 194.427 146.921 194.5C146.615 194.573 146.345 194.653 146.111 194.74C145.845 194.847 145.628 194.963 145.461 195.09C145.301 195.21 145.181 195.343 145.101 195.49C145.028 195.637 144.991 195.8 144.991 195.98C144.991 196.227 145.051 196.44 145.171 196.62C145.298 196.793 145.475 196.927 145.701 197.02C145.928 197.113 146.198 197.16 146.511 197.16ZM154.591 199V188.2H156.991V190.84L156.731 190.5C156.871 190.127 157.058 189.787 157.291 189.48C157.525 189.173 157.811 188.92 158.151 188.72C158.411 188.56 158.695 188.437 159.001 188.35C159.308 188.257 159.625 188.2 159.951 188.18C160.278 188.153 160.605 188.16 160.931 188.2V190.74C160.631 190.647 160.281 190.617 159.881 190.65C159.488 190.677 159.131 190.767 158.811 190.92C158.491 191.067 158.221 191.263 158.001 191.51C157.781 191.75 157.615 192.037 157.501 192.37C157.388 192.697 157.331 193.067 157.331 193.48V199H154.591ZM167.018 199.3C166.025 199.3 165.155 199.05 164.408 198.55C163.662 198.05 163.078 197.37 162.658 196.51C162.245 195.65 162.038 194.68 162.038 193.6C162.038 192.5 162.248 191.523 162.668 190.67C163.095 189.81 163.692 189.133 164.458 188.64C165.225 188.147 166.125 187.9 167.158 187.9C168.185 187.9 169.048 188.15 169.748 188.65C170.448 189.15 170.978 189.83 171.338 190.69C171.698 191.55 171.878 192.52 171.878 193.6C171.878 194.68 171.695 195.65 171.328 196.51C170.968 197.37 170.428 198.05 169.708 198.55C168.988 199.05 168.092 199.3 167.018 199.3ZM167.458 196.88C168.065 196.88 168.548 196.743 168.908 196.47C169.275 196.197 169.538 195.813 169.698 195.32C169.858 194.827 169.938 194.253 169.938 193.6C169.938 192.947 169.858 192.373 169.698 191.88C169.538 191.387 169.282 191.003 168.928 190.73C168.582 190.457 168.125 190.32 167.558 190.32C166.952 190.32 166.452 190.47 166.058 190.77C165.672 191.063 165.385 191.46 165.198 191.96C165.012 192.453 164.918 193 164.918 193.6C164.918 194.207 165.008 194.76 165.188 195.26C165.368 195.753 165.645 196.147 166.018 196.44C166.392 196.733 166.872 196.88 167.458 196.88ZM169.938 199V191.6H169.598V184.6H172.338V199H169.938Z" fill="#2B6CE5"/>
<path d="M34.9096 189.699H29.2309C28.7159 189.699 28.2969 189.279 28.2969 188.763V183.084C28.2969 182.569 28.7159 182.15 29.2309 182.15H34.9096C35.4246 182.15 35.8437 182.569 35.8437 183.084V188.763C35.8437 189.279 35.4246 189.699 34.9096 189.699ZM29.2309 182.598C29.1019 182.598 28.9783 182.649 28.8871 182.74C28.7959 182.832 28.7447 182.955 28.7447 183.084V188.763C28.7447 189.032 28.9628 189.251 29.2309 189.251H34.9096C35.0388 189.251 35.1625 189.199 35.2537 189.108C35.3448 189.016 35.3959 188.892 35.3958 188.763V183.084C35.3958 182.955 35.3446 182.832 35.2534 182.74C35.1623 182.649 35.0386 182.598 34.9096 182.598H29.2309ZM44.8501 189.699H39.17C38.9221 189.698 38.6846 189.599 38.5095 189.424C38.3345 189.248 38.2363 189.01 38.2364 188.763V183.084C38.2364 182.569 38.655 182.15 39.17 182.15H44.8501C45.0976 182.151 45.3348 182.249 45.5096 182.425C45.6845 182.6 45.7827 182.837 45.7827 183.084V188.763C45.7827 189.011 45.6845 189.248 45.5097 189.424C45.3349 189.599 45.0977 189.698 44.8501 189.699ZM39.17 182.598C39.041 182.598 38.9173 182.649 38.8261 182.74C38.7349 182.832 38.6837 182.955 38.6837 183.084V188.763C38.6837 189.032 38.9019 189.251 39.17 189.251H44.8501C45.1127 189.251 45.3348 189.028 45.3348 188.763V183.084C45.3349 183.021 45.3225 182.957 45.2982 182.899C45.2739 182.84 45.2383 182.786 45.1933 182.741C45.1483 182.696 45.0948 182.66 45.0359 182.635C44.977 182.611 44.9139 182.598 44.8501 182.598H39.17ZM34.9096 199.4H29.2309C28.7159 199.4 28.2969 198.981 28.2969 198.466V192.786C28.2969 192.271 28.7159 191.852 29.2309 191.852H34.9096C35.4246 191.852 35.8437 192.271 35.8437 192.786V198.466C35.8437 198.981 35.4246 199.4 34.9096 199.4ZM29.2309 192.299C29.102 192.3 28.9784 192.351 28.8873 192.442C28.7961 192.534 28.7449 192.657 28.7447 192.786V198.466C28.7447 198.734 28.9628 198.953 29.2309 198.953H34.9096C35.0386 198.952 35.1623 198.901 35.2534 198.81C35.3446 198.719 35.3958 198.595 35.3958 198.466V192.786C35.3958 192.657 35.3446 192.533 35.2534 192.442C35.1623 192.351 35.0386 192.3 34.9096 192.299H29.2309ZM44.8501 199.4H39.17C38.655 199.4 38.2364 198.981 38.2364 198.466V192.786C38.2364 192.271 38.655 191.852 39.17 191.852H44.8501C45.3641 191.852 45.7827 192.271 45.7827 192.786V198.466C45.7825 198.713 45.6843 198.951 45.5095 199.126C45.3347 199.301 45.0976 199.4 44.8501 199.4ZM39.17 192.299C39.041 192.3 38.9174 192.351 38.8263 192.442C38.7351 192.534 38.6839 192.657 38.6837 192.786V198.466C38.6837 198.734 38.9019 198.953 39.17 198.953H44.8501C45.1177 198.953 45.3348 198.734 45.3348 198.466V192.786C45.3349 192.722 45.3225 192.659 45.2982 192.6C45.2739 192.541 45.2383 192.488 45.1933 192.442C45.1483 192.397 45.0948 192.361 45.0359 192.337C44.977 192.312 44.9139 192.3 44.8501 192.299H39.17Z" fill="#2B6CE5"/>
<rect x="38.3945" y="182.15" width="7.57354" height="7.57354" rx="1.00981" fill="#2B6CE5"/>
<rect x="28.2969" y="191.743" width="7.57354" height="7.57354" rx="1.00981" fill="#2B6CE5"/>
<rect x="38.3945" y="191.743" width="7.57354" height="7.57354" rx="1.00981" fill="#2B6CE5"/>
<rect x="28.2969" y="182.15" width="7.57354" height="7.57354" rx="1.00981" fill="#2B6CE5"/>
<path d="M44.6478 502.891C44.5295 503.159 44.4942 503.456 44.5465 503.745C44.5987 504.033 44.7362 504.299 44.941 504.508L44.9944 504.562C45.1596 504.727 45.2907 504.923 45.3801 505.139C45.4696 505.354 45.5156 505.586 45.5156 505.819C45.5156 506.053 45.4696 506.284 45.3801 506.5C45.2907 506.716 45.1596 506.912 44.9944 507.077C44.8293 507.242 44.6333 507.373 44.4175 507.462C44.2018 507.552 43.9705 507.598 43.7369 507.598C43.5034 507.598 43.2721 507.552 43.0563 507.462C42.8406 507.373 42.6446 507.242 42.4795 507.077L42.4262 507.023C42.2168 506.818 41.9508 506.681 41.6625 506.629C41.3742 506.576 41.0769 506.612 40.8089 506.73C40.546 506.843 40.3219 507.03 40.164 507.268C40.0061 507.507 39.9214 507.786 39.9202 508.072V508.223C39.9202 508.694 39.733 509.146 39.3997 509.48C39.0664 509.813 38.6143 510 38.143 510C37.6716 510 37.2195 509.813 36.8862 509.48C36.5529 509.146 36.3657 508.694 36.3657 508.223V508.143C36.3588 507.849 36.2636 507.564 36.0924 507.324C35.9213 507.085 35.6821 506.903 35.406 506.801C35.1379 506.683 34.8406 506.648 34.5524 506.7C34.2641 506.752 33.9981 506.889 33.7886 507.094L33.7353 507.148C33.5703 507.313 33.3743 507.444 33.1585 507.533C32.9427 507.623 32.7115 507.669 32.4779 507.669C32.2443 507.669 32.0131 507.623 31.7973 507.533C31.5816 507.444 31.3855 507.313 31.2205 507.148C31.0552 506.983 30.9242 506.787 30.8347 506.571C30.7453 506.355 30.6992 506.124 30.6992 505.89C30.6992 505.657 30.7453 505.425 30.8347 505.21C30.9242 504.994 31.0552 504.798 31.2205 504.633L31.2738 504.58C31.4787 504.37 31.6161 504.104 31.6684 503.816C31.7206 503.528 31.6853 503.23 31.5671 502.962C31.4544 502.699 31.2674 502.475 31.029 502.317C30.7905 502.159 30.5112 502.075 30.2252 502.074H30.0741C29.6028 502.074 29.1507 501.886 28.8174 501.553C28.4841 501.22 28.2969 500.768 28.2969 500.296C28.2969 499.825 28.4841 499.373 28.8174 499.04C29.1507 498.706 29.6028 498.519 30.0741 498.519H30.1541C30.4483 498.512 30.7335 498.417 30.9728 498.246C31.2121 498.075 31.3944 497.835 31.496 497.559C31.6143 497.291 31.6495 496.994 31.5973 496.706C31.545 496.417 31.4076 496.151 31.2027 495.942L31.1494 495.889C30.9842 495.724 30.8531 495.528 30.7636 495.312C30.6742 495.096 30.6281 494.865 30.6281 494.631C30.6281 494.398 30.6742 494.166 30.7636 493.951C30.8531 493.735 30.9842 493.539 31.1494 493.374C31.3145 493.209 31.5105 493.077 31.7262 492.988C31.942 492.899 32.1733 492.853 32.4068 492.853C32.6404 492.853 32.8716 492.899 33.0874 492.988C33.3032 493.077 33.4992 493.209 33.6642 493.374L33.7176 493.427C33.927 493.632 34.193 493.769 34.4813 493.822C34.7695 493.874 35.0668 493.839 35.3349 493.72H35.406C35.6688 493.608 35.893 493.421 36.0508 493.182C36.2087 492.944 36.2935 492.664 36.2946 492.379V492.227C36.2946 491.756 36.4819 491.304 36.8152 490.971C37.1485 490.637 37.6005 490.45 38.0719 490.45C38.5432 490.45 38.9953 490.637 39.3286 490.971C39.6619 491.304 39.8491 491.756 39.8491 492.227V492.307C39.8503 492.593 39.935 492.873 40.0929 493.111C40.2508 493.35 40.475 493.537 40.7378 493.649C41.0058 493.768 41.3031 493.803 41.5914 493.751C41.8797 493.698 42.1457 493.561 42.3551 493.356L42.4084 493.303C42.5735 493.137 42.7695 493.006 42.9853 492.917C43.201 492.828 43.4323 492.781 43.6658 492.781C43.8994 492.781 44.1307 492.828 44.3464 492.917C44.5622 493.006 44.7582 493.137 44.9233 493.303C45.0885 493.468 45.2196 493.664 45.309 493.88C45.3985 494.095 45.4445 494.327 45.4445 494.56C45.4445 494.794 45.3985 495.025 45.309 495.241C45.2196 495.456 45.0885 495.652 44.9233 495.818L44.8699 495.871C44.6651 496.08 44.5277 496.346 44.4754 496.635C44.4231 496.923 44.4584 497.22 44.5767 497.488V497.559C44.6893 497.822 44.8764 498.046 45.1148 498.204C45.3532 498.362 45.6326 498.447 45.9185 498.448H46.0696C46.541 498.448 46.993 498.635 47.3263 498.968C47.6596 499.302 47.8469 499.754 47.8469 500.225C47.8469 500.697 47.6596 501.149 47.3263 501.482C46.993 501.815 46.541 502.002 46.0696 502.002H45.9896C45.7037 502.004 45.4243 502.088 45.1859 502.246C44.9475 502.404 44.7604 502.628 44.6478 502.891Z" fill="#696969" stroke="#696969" stroke-width="1.15" stroke-linecap="round" stroke-linejoin="round"/>
<circle cx="38.0703" cy="500.225" r="2.875" fill="#F9FAFD"/>
<path d="M97.9 48C97.46 48 97.12 47.8867 96.88 47.66C96.6533 47.42 96.54 47.08 96.54 46.64V35.26C96.54 34.82 96.6533 34.4867 96.88 34.26C97.12 34.02 97.46 33.9 97.9 33.9H102.7C103.687 33.9 104.527 34.0467 105.22 34.34C105.913 34.6333 106.44 35.0533 106.8 35.6C107.173 36.1467 107.36 36.8 107.36 37.56C107.36 38.4133 107.113 39.1333 106.62 39.72C106.127 40.3067 105.453 40.7 104.6 40.9V40.6C105.587 40.7467 106.353 41.12 106.9 41.72C107.447 42.32 107.72 43.1 107.72 44.06C107.72 45.3133 107.293 46.2867 106.44 46.98C105.6 47.66 104.427 48 102.92 48H97.9ZM99 46.06H102.6C103.507 46.06 104.173 45.8867 104.6 45.54C105.027 45.18 105.24 44.6467 105.24 43.94C105.24 43.22 105.027 42.6867 104.6 42.34C104.173 41.9933 103.507 41.82 102.6 41.82H99V46.06ZM99 39.88H102.26C103.14 39.88 103.793 39.7133 104.22 39.38C104.66 39.0333 104.88 38.5267 104.88 37.86C104.88 37.1933 104.66 36.6933 104.22 36.36C103.793 36.0133 103.14 35.84 102.26 35.84H99V39.88ZM114.89 48.2C113.783 48.2 112.83 47.9933 112.03 47.58C111.23 47.1667 110.61 46.58 110.17 45.82C109.743 45.06 109.53 44.16 109.53 43.12C109.53 42.1067 109.736 41.22 110.15 40.46C110.576 39.7 111.156 39.1067 111.89 38.68C112.636 38.24 113.483 38.02 114.43 38.02C115.123 38.02 115.743 38.1333 116.29 38.36C116.85 38.5867 117.323 38.9133 117.71 39.34C118.11 39.7667 118.41 40.2867 118.61 40.9C118.823 41.5 118.93 42.18 118.93 42.94C118.93 43.18 118.843 43.3667 118.67 43.5C118.51 43.62 118.276 43.68 117.97 43.68H111.55V42.24H117.17L116.85 42.54C116.85 41.9267 116.756 41.4133 116.57 41C116.396 40.5867 116.136 40.2733 115.79 40.06C115.456 39.8333 115.036 39.72 114.53 39.72C113.97 39.72 113.49 39.8533 113.09 40.12C112.703 40.3733 112.403 40.74 112.19 41.22C111.99 41.6867 111.89 42.2467 111.89 42.9V43.04C111.89 44.1333 112.143 44.9533 112.65 45.5C113.17 46.0333 113.93 46.3 114.93 46.3C115.276 46.3 115.663 46.26 116.09 46.18C116.53 46.0867 116.943 45.9333 117.33 45.72C117.61 45.56 117.856 45.4933 118.07 45.52C118.283 45.5333 118.45 45.6067 118.57 45.74C118.703 45.8733 118.783 46.04 118.81 46.24C118.836 46.4267 118.796 46.62 118.69 46.82C118.596 47.02 118.43 47.1933 118.19 47.34C117.723 47.6333 117.183 47.8533 116.57 48C115.97 48.1333 115.41 48.2 114.89 48.2ZM125.469 51.8C124.749 51.8 124.049 51.7333 123.369 51.6C122.703 51.4667 122.096 51.26 121.549 50.98C121.296 50.8467 121.123 50.6867 121.029 50.5C120.949 50.3133 120.923 50.12 120.949 49.92C120.989 49.7333 121.069 49.5667 121.189 49.42C121.323 49.2733 121.483 49.1733 121.669 49.12C121.856 49.0667 122.049 49.0933 122.249 49.2C122.836 49.4933 123.389 49.68 123.909 49.76C124.443 49.8533 124.896 49.9 125.269 49.9C126.163 49.9 126.829 49.68 127.269 49.24C127.723 48.8133 127.949 48.1733 127.949 47.32V45.52H128.129C127.929 46.2 127.509 46.7467 126.869 47.16C126.243 47.56 125.529 47.76 124.729 47.76C123.849 47.76 123.083 47.56 122.429 47.16C121.776 46.7467 121.269 46.1733 120.909 45.44C120.549 44.7067 120.369 43.8533 120.369 42.88C120.369 42.1467 120.469 41.4867 120.669 40.9C120.883 40.3 121.176 39.7867 121.549 39.36C121.936 38.9333 122.396 38.6067 122.929 38.38C123.476 38.14 124.076 38.02 124.729 38.02C125.556 38.02 126.276 38.2267 126.889 38.64C127.516 39.04 127.923 39.5733 128.109 40.24L127.909 40.74V39.32C127.909 38.9067 128.016 38.5933 128.229 38.38C128.456 38.1667 128.763 38.06 129.149 38.06C129.549 38.06 129.856 38.1667 130.069 38.38C130.283 38.5933 130.389 38.9067 130.389 39.32V47.02C130.389 48.6067 129.969 49.8 129.129 50.6C128.289 51.4 127.069 51.8 125.469 51.8ZM125.409 45.86C125.929 45.86 126.376 45.74 126.749 45.5C127.123 45.26 127.409 44.92 127.609 44.48C127.823 44.0267 127.929 43.4933 127.929 42.88C127.929 41.96 127.703 41.24 127.249 40.72C126.796 40.1867 126.183 39.92 125.409 39.92C124.889 39.92 124.443 40.04 124.069 40.28C123.696 40.52 123.403 40.86 123.189 41.3C122.989 41.74 122.889 42.2667 122.889 42.88C122.889 43.8 123.116 44.5267 123.569 45.06C124.023 45.5933 124.636 45.86 125.409 45.86ZM134.22 48.14C133.82 48.14 133.513 48.02 133.3 47.78C133.086 47.54 132.98 47.2067 132.98 46.78V39.44C132.98 39 133.086 38.6667 133.3 38.44C133.513 38.2 133.82 38.08 134.22 38.08C134.62 38.08 134.926 38.2 135.14 38.44C135.366 38.6667 135.48 39 135.48 39.44V46.78C135.48 47.2067 135.373 47.54 135.16 47.78C134.946 48.02 134.633 48.14 134.22 48.14ZM134.22 36.22C133.753 36.22 133.386 36.1067 133.12 35.88C132.866 35.64 132.74 35.3133 132.74 34.9C132.74 34.4733 132.866 34.1467 133.12 33.92C133.386 33.6933 133.753 33.58 134.22 33.58C134.7 33.58 135.066 33.6933 135.32 33.92C135.573 34.1467 135.7 34.4733 135.7 34.9C135.7 35.3133 135.573 35.64 135.32 35.88C135.066 36.1067 134.7 36.22 134.22 36.22ZM139.317 48.16C138.917 48.16 138.611 48.0533 138.397 47.84C138.184 47.6133 138.077 47.2933 138.077 46.88V39.32C138.077 38.9067 138.184 38.5933 138.397 38.38C138.611 38.1667 138.911 38.06 139.297 38.06C139.684 38.06 139.984 38.1667 140.197 38.38C140.411 38.5933 140.517 38.9067 140.517 39.32V40.68L140.297 40.18C140.591 39.4733 141.044 38.94 141.657 38.58C142.284 38.2067 142.991 38.02 143.777 38.02C144.564 38.02 145.211 38.1667 145.717 38.46C146.224 38.7533 146.604 39.2 146.857 39.8C147.111 40.3867 147.237 41.1333 147.237 42.04V46.88C147.237 47.2933 147.131 47.6133 146.917 47.84C146.704 48.0533 146.397 48.16 145.997 48.16C145.597 48.16 145.284 48.0533 145.057 47.84C144.844 47.6133 144.737 47.2933 144.737 46.88V42.16C144.737 41.4 144.591 40.8467 144.297 40.5C144.017 40.1533 143.577 39.98 142.977 39.98C142.244 39.98 141.657 40.2133 141.217 40.68C140.791 41.1333 140.577 41.74 140.577 42.5V46.88C140.577 47.7333 140.157 48.16 139.317 48.16ZM151.017 48.16C150.617 48.16 150.31 48.0533 150.097 47.84C149.883 47.6133 149.777 47.2933 149.777 46.88V39.32C149.777 38.9067 149.883 38.5933 150.097 38.38C150.31 38.1667 150.61 38.06 150.997 38.06C151.383 38.06 151.683 38.1667 151.897 38.38C152.11 38.5933 152.217 38.9067 152.217 39.32V40.68L151.997 40.18C152.29 39.4733 152.743 38.94 153.357 38.58C153.983 38.2067 154.69 38.02 155.477 38.02C156.263 38.02 156.91 38.1667 157.417 38.46C157.923 38.7533 158.303 39.2 158.557 39.8C158.81 40.3867 158.937 41.1333 158.937 42.04V46.88C158.937 47.2933 158.83 47.6133 158.617 47.84C158.403 48.0533 158.097 48.16 157.697 48.16C157.297 48.16 156.983 48.0533 156.757 47.84C156.543 47.6133 156.437 47.2933 156.437 46.88V42.16C156.437 41.4 156.29 40.8467 155.997 40.5C155.717 40.1533 155.277 39.98 154.677 39.98C153.943 39.98 153.357 40.2133 152.917 40.68C152.49 41.1333 152.277 41.74 152.277 42.5V46.88C152.277 47.7333 151.857 48.16 151.017 48.16ZM166.296 48.2C165.189 48.2 164.236 47.9933 163.436 47.58C162.636 47.1667 162.016 46.58 161.576 45.82C161.149 45.06 160.936 44.16 160.936 43.12C160.936 42.1067 161.142 41.22 161.556 40.46C161.982 39.7 162.562 39.1067 163.296 38.68C164.042 38.24 164.889 38.02 165.836 38.02C166.529 38.02 167.149 38.1333 167.696 38.36C168.256 38.5867 168.729 38.9133 169.116 39.34C169.516 39.7667 169.816 40.2867 170.016 40.9C170.229 41.5 170.336 42.18 170.336 42.94C170.336 43.18 170.249 43.3667 170.076 43.5C169.916 43.62 169.682 43.68 169.376 43.68H162.956V42.24H168.576L168.256 42.54C168.256 41.9267 168.162 41.4133 167.976 41C167.802 40.5867 167.542 40.2733 167.196 40.06C166.862 39.8333 166.442 39.72 165.936 39.72C165.376 39.72 164.896 39.8533 164.496 40.12C164.109 40.3733 163.809 40.74 163.596 41.22C163.396 41.6867 163.296 42.2467 163.296 42.9V43.04C163.296 44.1333 163.549 44.9533 164.056 45.5C164.576 46.0333 165.336 46.3 166.336 46.3C166.682 46.3 167.069 46.26 167.496 46.18C167.936 46.0867 168.349 45.9333 168.736 45.72C169.016 45.56 169.262 45.4933 169.476 45.52C169.689 45.5333 169.856 45.6067 169.976 45.74C170.109 45.8733 170.189 46.04 170.216 46.24C170.242 46.4267 170.202 46.62 170.096 46.82C170.002 47.02 169.836 47.1933 169.596 47.34C169.129 47.6333 168.589 47.8533 167.976 48C167.376 48.1333 166.816 48.2 166.296 48.2ZM173.596 48.16C173.182 48.16 172.862 48.0533 172.636 47.84C172.422 47.6133 172.316 47.2933 172.316 46.88V39.32C172.316 38.9067 172.422 38.5933 172.636 38.38C172.849 38.1667 173.149 38.06 173.536 38.06C173.922 38.06 174.222 38.1667 174.436 38.38C174.649 38.5933 174.756 38.9067 174.756 39.32V40.58H174.556C174.742 39.78 175.109 39.1733 175.656 38.76C176.202 38.3467 176.929 38.1 177.836 38.02C178.116 37.9933 178.336 38.0667 178.496 38.24C178.669 38.4 178.769 38.6533 178.796 39C178.822 39.3333 178.742 39.6067 178.556 39.82C178.382 40.02 178.116 40.14 177.756 40.18L177.316 40.22C176.502 40.3 175.889 40.5533 175.476 40.98C175.062 41.3933 174.856 41.98 174.856 42.74V46.88C174.856 47.2933 174.749 47.6133 174.536 47.84C174.322 48.0533 174.009 48.16 173.596 48.16ZM187.097 48.16C186.684 48.16 186.364 48.0467 186.137 47.82C185.924 47.58 185.817 47.2533 185.817 46.84V35.2C185.817 34.7733 185.931 34.4533 186.157 34.24C186.384 34.0133 186.704 33.9 187.117 33.9H191.937C193.484 33.9 194.677 34.2867 195.517 35.06C196.357 35.8333 196.777 36.9133 196.777 38.3C196.777 39.6867 196.357 40.7733 195.517 41.56C194.677 42.3333 193.484 42.72 191.937 42.72H188.377V46.84C188.377 47.2533 188.271 47.58 188.057 47.82C187.844 48.0467 187.524 48.16 187.097 48.16ZM188.377 40.7H191.537C192.444 40.7 193.131 40.5 193.597 40.1C194.064 39.6867 194.297 39.0867 194.297 38.3C194.297 37.5133 194.064 36.92 193.597 36.52C193.131 36.12 192.444 35.92 191.537 35.92H188.377V40.7ZM199.864 48.14C199.464 48.14 199.158 48.02 198.944 47.78C198.731 47.54 198.624 47.2067 198.624 46.78V39.44C198.624 39 198.731 38.6667 198.944 38.44C199.158 38.2 199.464 38.08 199.864 38.08C200.264 38.08 200.571 38.2 200.784 38.44C201.011 38.6667 201.124 39 201.124 39.44V46.78C201.124 47.2067 201.018 47.54 200.804 47.78C200.591 48.02 200.278 48.14 199.864 48.14ZM199.864 36.22C199.398 36.22 199.031 36.1067 198.764 35.88C198.511 35.64 198.384 35.3133 198.384 34.9C198.384 34.4733 198.511 34.1467 198.764 33.92C199.031 33.6933 199.398 33.58 199.864 33.58C200.344 33.58 200.711 33.6933 200.964 33.92C201.218 34.1467 201.344 34.4733 201.344 34.9C201.344 35.3133 201.218 35.64 200.964 35.88C200.711 36.1067 200.344 36.22 199.864 36.22ZM206.942 48.2C206.235 48.2 205.602 48.0667 205.042 47.8C204.495 47.52 204.062 47.1467 203.742 46.68C203.435 46.2133 203.282 45.6867 203.282 45.1C203.282 44.38 203.469 43.8133 203.842 43.4C204.215 42.9733 204.822 42.6667 205.662 42.48C206.502 42.2933 207.629 42.2 209.042 42.2H210.042V43.64H209.062C208.235 43.64 207.575 43.68 207.082 43.76C206.589 43.84 206.235 43.98 206.022 44.18C205.822 44.3667 205.722 44.6333 205.722 44.98C205.722 45.42 205.875 45.78 206.182 46.06C206.489 46.34 206.915 46.48 207.462 46.48C207.902 46.48 208.289 46.38 208.622 46.18C208.969 45.9667 209.242 45.68 209.442 45.32C209.642 44.96 209.742 44.5467 209.742 44.08V41.78C209.742 41.1133 209.595 40.6333 209.302 40.34C209.009 40.0467 208.515 39.9 207.822 39.9C207.435 39.9 207.015 39.9467 206.562 40.04C206.122 40.1333 205.655 40.2933 205.162 40.52C204.909 40.64 204.682 40.6733 204.482 40.62C204.295 40.5667 204.149 40.46 204.042 40.3C203.935 40.1267 203.882 39.94 203.882 39.74C203.882 39.54 203.935 39.3467 204.042 39.16C204.149 38.96 204.329 38.8133 204.582 38.72C205.195 38.4667 205.782 38.2867 206.342 38.18C206.915 38.0733 207.435 38.02 207.902 38.02C208.862 38.02 209.649 38.1667 210.262 38.46C210.889 38.7533 211.355 39.2 211.662 39.8C211.969 40.3867 212.122 41.1467 212.122 42.08V46.88C212.122 47.2933 212.022 47.6133 211.822 47.84C211.622 48.0533 211.335 48.16 210.962 48.16C210.589 48.16 210.295 48.0533 210.082 47.84C209.882 47.6133 209.782 47.2933 209.782 46.88V45.92H209.942C209.849 46.3867 209.662 46.7933 209.382 47.14C209.115 47.4733 208.775 47.7333 208.362 47.92C207.949 48.1067 207.475 48.2 206.942 48.2ZM215.899 48.16C215.499 48.16 215.193 48.0533 214.979 47.84C214.766 47.6133 214.659 47.2933 214.659 46.88V39.32C214.659 38.9067 214.766 38.5933 214.979 38.38C215.193 38.1667 215.493 38.06 215.879 38.06C216.266 38.06 216.566 38.1667 216.779 38.38C216.993 38.5933 217.099 38.9067 217.099 39.32V40.68L216.879 40.18C217.173 39.4733 217.626 38.94 218.239 38.58C218.866 38.2067 219.573 38.02 220.359 38.02C221.146 38.02 221.793 38.1667 222.299 38.46C222.806 38.7533 223.186 39.2 223.439 39.8C223.693 40.3867 223.819 41.1333 223.819 42.04V46.88C223.819 47.2933 223.713 47.6133 223.499 47.84C223.286 48.0533 222.979 48.16 222.579 48.16C222.179 48.16 221.866 48.0533 221.639 47.84C221.426 47.6133 221.319 47.2933 221.319 46.88V42.16C221.319 41.4 221.173 40.8467 220.879 40.5C220.599 40.1533 220.159 39.98 219.559 39.98C218.826 39.98 218.239 40.2133 217.799 40.68C217.373 41.1333 217.159 41.74 217.159 42.5V46.88C217.159 47.7333 216.739 48.16 215.899 48.16ZM230.819 48.2C229.805 48.2 228.925 47.9933 228.179 47.58C227.432 47.1667 226.852 46.58 226.439 45.82C226.025 45.0467 225.819 44.14 225.819 43.1C225.819 42.3133 225.932 41.6133 226.159 41C226.399 40.3733 226.739 39.84 227.179 39.4C227.619 38.9467 228.145 38.6067 228.759 38.38C229.372 38.14 230.059 38.02 230.819 38.02C231.832 38.02 232.712 38.2267 233.459 38.64C234.205 39.0533 234.785 39.64 235.199 40.4C235.612 41.16 235.819 42.06 235.819 43.1C235.819 43.8867 235.699 44.5933 235.459 45.22C235.232 45.8467 234.899 46.3867 234.459 46.84C234.019 47.28 233.492 47.62 232.879 47.86C232.265 48.0867 231.579 48.2 230.819 48.2ZM230.819 46.3C231.312 46.3 231.745 46.18 232.119 45.94C232.492 45.7 232.779 45.3467 232.979 44.88C233.192 44.4 233.299 43.8067 233.299 43.1C233.299 42.0333 233.072 41.24 232.619 40.72C232.165 40.1867 231.565 39.92 230.819 39.92C230.325 39.92 229.892 40.04 229.519 40.28C229.145 40.5067 228.852 40.86 228.639 41.34C228.439 41.8067 228.339 42.3933 228.339 43.1C228.339 44.1533 228.565 44.9533 229.019 45.5C229.472 46.0333 230.072 46.3 230.819 46.3Z" fill="#212121"/>
<path d="M265 40L271 46L277 40" stroke="#212121" stroke-width="3" stroke-linecap="round" stroke-linejoin="round"/>
<path d="M41.5281 317.963H43.5406C44.0744 317.963 44.5863 318.175 44.9637 318.552C45.3411 318.93 45.5531 319.441 45.5531 319.975V334.063C45.5531 334.596 45.3411 335.108 44.9637 335.486C44.5863 335.863 44.0744 336.075 43.5406 336.075H31.4656C30.9319 336.075 30.42 335.863 30.0426 335.486C29.6652 335.108 29.4531 334.596 29.4531 334.063V319.975C29.4531 319.441 29.6652 318.93 30.0426 318.552C30.42 318.175 30.9319 317.963 31.4656 317.963H33.4781" fill="#696969"/>
<path d="M41.5281 317.963H43.5406C44.0744 317.963 44.5863 318.175 44.9637 318.552C45.3411 318.93 45.5531 319.441 45.5531 319.975V334.063C45.5531 334.596 45.3411 335.108 44.9637 335.486C44.5863 335.863 44.0744 336.075 43.5406 336.075H31.4656C30.9319 336.075 30.42 335.863 30.0426 335.486C29.6652 335.108 29.4531 334.596 29.4531 334.063V319.975C29.4531 319.441 29.6652 318.93 30.0426 318.552C30.42 318.175 30.9319 317.963 31.4656 317.963H33.4781" stroke="#696969" stroke-width="2.0125" stroke-linecap="round" stroke-linejoin="round"/>
<path d="M40.5203 315.95H34.4828C33.9271 315.95 33.4766 316.401 33.4766 316.956V318.969C33.4766 319.525 33.9271 319.975 34.4828 319.975H40.5203C41.076 319.975 41.5266 319.525 41.5266 318.969V316.956C41.5266 316.401 41.076 315.95 40.5203 315.95Z" fill="#F9FAFD" stroke="#696969" stroke-width="2.0125" stroke-linecap="round" stroke-linejoin="round"/>
<path d="M36.0625 397.1C36.0625 397.1 34.625 397.1 34.625 395.663C34.625 394.225 36.0625 389.913 41.8125 389.913C47.5625 389.913 49 394.225 49 395.663C49 397.1 47.5625 397.1 47.5625 397.1H36.0625ZM41.8125 388.475C42.9562 388.475 44.0531 388.021 44.8619 387.212C45.6706 386.403 46.125 385.306 46.125 384.163C46.125 383.019 45.6706 381.922 44.8619 381.113C44.0531 380.304 42.9562 379.85 41.8125 379.85C40.6688 379.85 39.5719 380.304 38.7631 381.113C37.9544 381.922 37.5 383.019 37.5 384.163C37.5 385.306 37.9544 386.403 38.7631 387.212C39.5719 388.021 40.6688 388.475 41.8125 388.475Z" fill="#696969"/>
<path fill-rule="evenodd" clip-rule="evenodd" d="M33.498 397.1C33.2849 396.651 33.1786 396.159 33.1875 395.662C33.1875 393.714 34.165 391.709 35.9705 390.315C35.0693 390.037 34.1304 389.901 33.1875 389.912C27.4375 389.912 26 394.225 26 395.662C26 397.1 27.4375 397.1 27.4375 397.1H33.498Z" fill="#696969"/>
<path d="M32.4688 388.475C33.4219 388.475 34.336 388.096 35.0099 387.423C35.6839 386.749 36.0625 385.834 36.0625 384.881C36.0625 383.928 35.6839 383.014 35.0099 382.34C34.336 381.666 33.4219 381.288 32.4688 381.288C31.5156 381.288 30.6015 381.666 29.9276 382.34C29.2536 383.014 28.875 383.928 28.875 384.881C28.875 385.834 29.2536 386.749 29.9276 387.423C30.6015 388.096 31.5156 388.475 32.4688 388.475Z" fill="#696969"/>
<path d="M48.4638 253.101L45.8912 250.529C45.6701 250.318 45.3763 250.2 45.0708 250.2C44.7653 250.2 44.4715 250.318 44.2504 250.529L41.9629 252.823H29.6913C29.3225 252.823 28.9688 252.97 28.7081 253.23C28.4473 253.491 28.3008 253.845 28.3008 254.214V269.51C28.3008 269.878 28.4473 270.232 28.7081 270.493C28.9688 270.754 29.3225 270.9 29.6913 270.9H44.9874C45.3562 270.9 45.7099 270.754 45.9707 270.493C46.2314 270.232 46.3779 269.878 46.3779 269.51V256.828L48.4638 254.742C48.6811 254.524 48.8032 254.229 48.8032 253.922C48.8032 253.614 48.6811 253.319 48.4638 253.101ZM38.6117 262.647L35.6985 263.294L36.3938 260.408L43.0337 253.755L45.2794 256L38.6117 262.647ZM46.0303 255.208L43.7846 252.962L45.0708 251.676L47.3166 253.922L46.0303 255.208Z" fill="#696969"/>
<rect x="26" y="18" width="50" height="50" rx="2.65487" fill="#F3E1F8"/>
<path d="M45.7156 34.4861C45.7156 34.4861 42.8966 32.0303 42.6253 31.759C42.3517 31.4854 41.6711 30.9865 41.8067 30.6232C41.9424 30.2599 44.2165 29.3493 45.8077 29.032C47.3989 28.7147 50.7071 28.2134 53.6618 29.5769C56.6165 30.9404 58.9924 32.7593 61.0824 36.1233C63.1725 39.4872 63.7247 44.1736 63.8555 46.7601C63.9911 49.4799 62.9764 53.3573 62.9764 53.3573L62.5356 54.033L45.7156 34.4861Z" fill="#AC39D3"/>
<path d="M63.6663 49.831C63.4871 51.8315 62.9737 53.3984 62.9737 53.3984L62.6104 54.171L45.788 34.6216L48.2366 33.9387L45.1172 29.2015C45.7057 28.9544 46.8827 28.7244 48.2123 28.7244L49.8229 35.0479L51.8936 28.9714C52.7897 29.0998 54.2041 29.7633 54.5286 30.0031L51.4092 36.4986L52.3973 36.857L56.5387 31.2141C57.1176 31.5119 57.5027 31.7929 57.9531 32.3039L53.7609 37.8112L55.1244 38.8163L59.4716 33.8733C60.0771 34.4448 60.5106 35.0358 60.9635 35.9101L56.6768 39.9425L57.4954 41.2891L62.1502 38.2205C62.4312 38.7824 62.5837 39.1505 62.6879 39.6785L58.0573 42.4298L59.1834 43.6916L63.2062 41.4925C63.4023 42.0205 63.5138 42.4637 63.538 43.0788L59.2343 45.244L59.9512 46.8642L63.8116 45.4668C63.9303 46.0456 63.94 46.3629 63.8625 46.932L60.5809 48.126L61.3655 50.0853L63.6663 49.831Z" fill="#DFDFE0"/>
<path d="M47.6908 33.5657C47.6908 33.5657 46.1214 33.6335 45.1333 34.3843C44.1452 35.135 42.2367 37.0774 41.3164 38.1672C40.3961 39.2571 38.8945 41.2357 38.8945 41.2357L40.8369 47.2032L42.0648 48.8404C42.0648 48.8404 44.2808 49.148 46.1892 48.5329C48.0977 47.9201 49.3255 47.0337 49.3255 47.0337C49.3255 47.0337 48.9502 49.4193 48.6426 51.4997C48.335 53.58 47.9499 56.1036 48.1195 56.3071C48.289 56.5105 51.9145 56.7164 55.5982 56.6147C59.2819 56.5129 62.6216 56.2732 62.7912 56.1036C62.9607 55.9341 63.4741 51.1945 61.154 45.1592C58.8338 39.1239 54.9201 36.4283 54.5447 36.191C54.1693 35.9512 53.0795 35.4402 53.0795 35.4402C53.0795 35.4402 53.2151 32.5073 52.3965 31.0421C51.5779 29.5768 51.389 28.8503 50.861 28.7921C50.2313 28.7243 49.0034 30.3082 48.5772 30.9743C48.0395 31.8122 47.6908 33.5657 47.6908 33.5657Z" fill="#AC39D3"/>
<path d="M39.457 41.2552L41.9976 38.085C41.9976 38.085 42.3899 38.579 41.7239 39.5502C41.2807 40.1993 40.2756 41.4417 40.2756 41.4417L39.457 41.2552ZM40.8956 45.8955C40.8956 45.8955 43.3902 43.5172 44.9862 43.8272C46.9866 44.2147 46.5895 47.5327 46.5895 47.5327C46.5895 47.5327 46.2601 47.7022 45.9525 47.7943C45.737 47.8572 45.2695 47.9371 45.2695 47.9371C45.2695 47.9371 45.4633 45.8737 44.6229 45.5104C43.7825 45.1471 42.8719 45.5564 42.1671 45.9657C41.4623 46.375 41.2129 46.5107 41.2129 46.5107L40.8956 45.8955Z" fill="white"/>
<path d="M41.9166 47.6803C41.9166 47.6803 42.4615 46.9973 43.1445 47.1112C43.8274 47.225 43.8613 48.1574 43.8613 48.1574C43.8613 48.1574 43.3503 48.1913 43.0088 48.1913C42.6673 48.1913 41.7591 48.1574 41.7591 48.1574L41.9166 47.6803ZM40.8945 42.5096L41.2578 43.907C41.2578 43.907 43.314 41.3737 46.3486 42.4515C49.3832 43.5292 48.1093 46.7019 48.1093 46.7019L48.94 46.3144C48.94 46.3144 49.2597 44.9145 48.986 43.9288C48.6227 42.621 47.5886 42.0204 47.8502 40.6908C48.1117 39.3612 48.3491 38.792 48.5549 38.4409C48.6712 38.2398 49.2597 37.6101 49.5842 38.0994C50.1243 38.9131 49.2936 39.3394 49.4655 40.8506C49.6375 42.3619 50.0977 42.173 50.6014 43.9409C50.8048 44.6578 50.5675 46.1448 50.5554 46.6001C50.5433 47.0555 50.3859 47.9516 50.3859 47.9516C50.3859 47.9516 53.3405 46.2829 54.2948 45.6096C56.0797 44.3526 58.567 42.0858 58.567 42.0858C58.567 42.0858 58.4604 41.8169 58.2594 41.5069C58.1068 41.2672 57.9639 41.1098 57.9639 41.1098C57.9639 41.1098 56.1402 42.4394 55.2756 43.0424C54.411 43.6455 52.1562 45.0429 51.9625 45.1567C51.7687 45.2705 51.4297 45.4982 51.3377 45.3965C51.1851 45.2269 51.6501 44.0499 51.8656 43.3669C52.0812 42.684 53.0645 40.1676 53.3938 39.2594C53.7232 38.3512 54.2463 37.0991 54.2463 37.0991C54.2463 37.0991 53.8952 36.7819 53.6554 36.668C53.4156 36.5542 52.8949 36.3605 52.8949 36.3605C52.8949 36.3605 52.304 37.8596 52.1005 38.1793C51.8971 38.4966 51.3837 39.4871 50.9308 39.1577C50.4755 38.8284 50.4876 37.305 51.2723 36.2587C51.6912 35.6993 52.1926 35.5201 52.2604 33.9749C52.3282 32.4298 51.8123 31.4295 51.5774 30.9064C51.3159 30.3203 51.0543 29.8262 50.8266 29.8384C50.599 29.8505 49.8216 30.7708 49.4801 31.2818C49.1725 31.7419 48.894 32.1803 48.7584 33.1684C48.6227 34.1566 48.6106 34.2486 48.6106 34.2486L48.1214 34.4302C48.1214 34.4302 47.8889 36.9635 47.3319 37.3849C46.7748 37.8063 45.8666 37.6755 45.7698 36.9538C45.6438 36.0069 45.6898 35.0333 45.6898 35.0333C45.6898 35.0333 45.3266 35.1592 45.0771 35.3966C44.8277 35.6363 44.6339 35.692 44.4305 36.7141C44.227 37.7361 44.2101 39.0342 43.7475 39.7947C43.2365 40.6351 42.7933 41.3301 41.9747 41.9308C41.1561 42.5314 40.8945 42.5096 40.8945 42.5096Z" fill="white"/>
<path d="M55.7389 38.4868C55.7389 38.4868 54.4481 41.3519 54.4892 41.4996C54.5304 41.6474 56.9668 39.6929 56.9668 39.6929C56.9668 39.6929 56.7319 39.3999 56.4219 39.056C56.0514 38.6467 55.7389 38.4868 55.7389 38.4868Z" fill="white"/>
<path d="M47.1343 39.9764C47.1343 40.6546 46.8727 41.3278 46.1123 41.26C45.5455 41.2092 45.0781 40.6546 45.0781 39.9764C45.0781 39.2983 45.5383 38.7485 46.1074 38.7485C46.6766 38.7485 47.1343 39.2983 47.1343 39.9764Z" fill="#AC39D3"/>
<path d="M49.43 51.5846L49.2266 53.4421C49.2266 53.4421 52.0747 52.3692 53.8984 51.1753C55.722 49.9813 58.5871 46.9975 59.1998 46.3339C59.8126 45.6703 60.1202 45.2078 60.1202 45.2078C60.1202 45.2078 60.0088 44.7863 59.8295 44.4231C59.6527 44.0598 59.4372 43.7231 59.4372 43.7231C59.4372 43.7231 55.8916 47.494 55.3975 47.8863C54.9034 48.2787 53.506 49.5235 52.4477 50.1024C51.3917 50.6812 49.43 51.5846 49.43 51.5846ZM50.1977 55.7962C50.3866 55.6073 53.6247 54.3818 54.8526 53.2896C55.2861 52.9045 58.0567 50.3058 58.977 49.2668C59.8973 48.2278 60.8855 47.0678 60.8855 47.0678C60.8855 47.0678 60.9533 47.4092 61.072 47.8016C61.1882 48.1818 61.2415 48.4676 61.2415 48.4676C61.2415 48.4676 60.0814 50.2235 59.4687 51.0081C58.8559 51.7928 57.4052 53.3598 57.0468 53.7013C56.6884 54.0428 56.3299 54.452 55.3757 55.0309C55.0366 55.2367 53.7724 55.8834 53.7724 55.8834C53.7724 55.8834 52.7673 55.9003 52.0844 55.9173C51.7816 55.9221 50.113 55.881 50.1977 55.7962ZM61.721 51.1753C61.721 51.1753 60.7159 53.1176 60.3745 53.6649C60.033 54.2099 59.0279 55.5734 59.0279 55.5734C59.0279 55.5734 60.4084 55.5225 60.8855 55.5056C61.3626 55.4886 62.0964 55.4208 62.0964 55.336C62.0964 55.1423 61.9608 53.137 61.9438 52.6938C61.9269 52.2506 61.8591 50.921 61.721 51.1753Z" fill="white"/>
<path d="M50.625 31.4684C50.2666 31.4297 49.7725 32.6455 49.6708 33.1904C49.3632 34.8106 49.4141 35.542 50.3005 35.542C51.2813 35.542 51.2038 33.7692 51.2038 33.3769C51.2038 32.9869 50.9326 31.5023 50.625 31.4684Z" fill="#AC39D3"/>
<path d="M41.2386 41.5312C40.5387 40.8918 39.444 40.6666 38.8966 41.2357C38.3517 41.8048 38.032 42.5314 37.5791 43.0085C37.1238 43.4856 36.1696 44.3042 35.6465 45.4183C35.1234 46.5323 34.8739 47.9879 35.6005 49.1916C36.327 50.3952 37.8044 51.192 39.6232 50.5551C41.442 49.9181 42.1686 48.9857 42.2364 48.3052C42.3042 47.6246 42.2364 46.622 41.5316 46.0552C41.2459 45.8252 40.7373 45.5103 40.9189 45.0768C41.1006 44.6433 42.5561 42.7373 41.2386 41.5312Z" fill="#AC39D3"/>
<path d="M36.6923 46.3049C36.6681 46.6827 37.1573 46.6124 37.3292 46.9636C37.4988 47.3148 37.1016 47.9978 37.5448 48.0777C37.988 48.1576 38.5571 47.2833 38.2834 46.4526C38.0098 45.6243 36.7262 45.7599 36.6923 46.3049ZM37.4479 50.6473C37.4479 50.6473 38.6588 50.0563 39.2038 49.5453C39.7341 49.0464 40.25 48.4434 40.3735 48.2496C40.4995 48.0559 40.761 47.7047 40.9863 47.8621C41.2139 48.022 41.1122 48.3053 40.9645 48.5209C40.8167 48.7364 40.4413 49.2717 39.8504 49.8166C39.3394 50.2888 39.0899 50.4075 38.7145 50.611C38.4409 50.7587 38.1793 50.7805 38.1793 50.7805C38.1793 50.7805 37.9662 50.7829 37.7458 50.7466C37.661 50.7345 37.4479 50.6473 37.4479 50.6473Z" fill="#AC39D3"/>
<line y1="86.5" x2="309" y2="86.5" stroke="#B9B9B9"/>
<line x1="308.5" y1="1186" x2="308.5" y2="-2.18556e-08" stroke="#B9B9B9"/>
<circle cx="37.5" cy="564.5" r="8.5" fill="#696969" stroke="#696969" stroke-width="2"/>
<path d="M37.5221 568.679C37.2261 568.679 36.9981 568.595 36.8381 568.427C36.6861 568.251 36.6101 568.007 36.6101 567.695V563.591C36.6101 563.271 36.6861 563.027 36.8381 562.859C36.9981 562.683 37.2261 562.595 37.5221 562.595C37.8101 562.595 38.0301 562.683 38.1821 562.859C38.3421 563.027 38.4221 563.271 38.4221 563.591V567.695C38.4221 568.007 38.3461 568.251 38.1941 568.427C38.0421 568.595 37.8181 568.679 37.5221 568.679ZM37.5221 561.611C37.1861 561.611 36.9261 561.535 36.7421 561.383C36.5661 561.223 36.4781 560.999 36.4781 560.711C36.4781 560.415 36.5661 560.191 36.7421 560.039C36.9261 559.879 37.1861 559.799 37.5221 559.799C37.8581 559.799 38.1141 559.879 38.2901 560.039C38.4661 560.191 38.5541 560.415 38.5541 560.711C38.5541 560.999 38.4661 561.223 38.2901 561.383C38.1141 561.535 37.8581 561.611 37.5221 561.611Z" fill="#F9FAFD"/>
<path d="M26.032 138.112C25.84 138.112 25.6907 138.059 25.584 137.952C25.4773 137.835 25.424 137.675 25.424 137.472V127.248C25.424 127.035 25.4773 126.875 25.584 126.768C25.6907 126.661 25.84 126.608 26.032 126.608C26.2027 126.608 26.336 126.645 26.432 126.72C26.5387 126.784 26.6347 126.896 26.72 127.056L31.104 135.312H30.624L34.992 127.056C35.0773 126.896 35.168 126.784 35.264 126.72C35.36 126.645 35.4987 126.608 35.68 126.608C35.8613 126.608 36.0053 126.661 36.112 126.768C36.2187 126.875 36.272 127.035 36.272 127.248V137.472C36.272 137.675 36.2187 137.835 36.112 137.952C36.016 138.059 35.8667 138.112 35.664 138.112C35.472 138.112 35.3227 138.059 35.216 137.952C35.1093 137.835 35.056 137.675 35.056 137.472V128.48H35.44L31.44 135.984C31.3653 136.123 31.2853 136.224 31.2 136.288C31.1253 136.341 31.0133 136.368 30.864 136.368C30.7147 136.368 30.5973 136.336 30.512 136.272C30.4267 136.208 30.352 136.112 30.288 135.984L26.24 128.464H26.624V137.472C26.624 137.675 26.5707 137.835 26.464 137.952C26.368 138.059 26.224 138.112 26.032 138.112ZM39.7995 138C39.5648 138 39.3835 137.941 39.2555 137.824C39.1382 137.696 39.0795 137.515 39.0795 137.28V127.44C39.0795 127.205 39.1382 127.029 39.2555 126.912C39.3835 126.784 39.5648 126.72 39.7995 126.72H45.7515C45.9328 126.72 46.0715 126.768 46.1675 126.864C46.2635 126.96 46.3115 127.093 46.3115 127.264C46.3115 127.445 46.2635 127.584 46.1675 127.68C46.0715 127.776 45.9328 127.824 45.7515 127.824H40.3595V131.728H45.4155C45.5968 131.728 45.7355 131.776 45.8315 131.872C45.9275 131.957 45.9755 132.091 45.9755 132.272C45.9755 132.453 45.9275 132.592 45.8315 132.688C45.7355 132.784 45.5968 132.832 45.4155 132.832H40.3595V136.896H45.7515C45.9328 136.896 46.0715 136.944 46.1675 137.04C46.2635 137.136 46.3115 137.269 46.3115 137.44C46.3115 137.621 46.2635 137.76 46.1675 137.856C46.0715 137.952 45.9328 138 45.7515 138H39.7995ZM49.0316 138.112C48.829 138.112 48.6743 138.059 48.5676 137.952C48.461 137.835 48.4076 137.669 48.4076 137.456V127.28C48.4076 127.067 48.461 126.901 48.5676 126.784C48.6743 126.667 48.813 126.608 48.9836 126.608C49.1543 126.608 49.277 126.64 49.3516 126.704C49.437 126.757 49.533 126.859 49.6396 127.008L56.6156 136.304H56.2316V127.248C56.2316 127.045 56.285 126.891 56.3916 126.784C56.4983 126.667 56.653 126.608 56.8556 126.608C57.0476 126.608 57.1916 126.667 57.2876 126.784C57.3943 126.891 57.4476 127.045 57.4476 127.248V137.472C57.4476 137.675 57.3996 137.835 57.3036 137.952C57.2183 138.059 57.0903 138.112 56.9196 138.112C56.7596 138.112 56.6316 138.08 56.5356 138.016C56.4396 137.952 56.3383 137.851 56.2316 137.712L49.2716 128.416H49.6396V137.456C49.6396 137.669 49.5863 137.835 49.4796 137.952C49.373 138.059 49.2236 138.112 49.0316 138.112ZM64.6994 138.144C63.9527 138.144 63.2967 138.048 62.7314 137.856C62.1767 137.653 61.7074 137.36 61.3234 136.976C60.9394 136.581 60.6514 136.096 60.4594 135.52C60.2674 134.944 60.1714 134.283 60.1714 133.536V127.28C60.1714 127.056 60.2247 126.891 60.3314 126.784C60.4487 126.667 60.614 126.608 60.8274 126.608C61.0407 126.608 61.2007 126.667 61.3074 126.784C61.4247 126.891 61.4834 127.056 61.4834 127.28V133.472C61.4834 134.645 61.7554 135.525 62.2994 136.112C62.8434 136.688 63.6434 136.976 64.6994 136.976C65.7554 136.976 66.55 136.688 67.0834 136.112C67.6167 135.525 67.8834 134.645 67.8834 133.472V127.28C67.8834 127.056 67.942 126.891 68.0594 126.784C68.1767 126.667 68.342 126.608 68.5554 126.608C68.758 126.608 68.9127 126.667 69.0194 126.784C69.1367 126.891 69.1954 127.056 69.1954 127.28V133.536C69.1954 134.528 69.0247 135.371 68.6834 136.064C68.3527 136.757 67.8514 137.28 67.1794 137.632C66.5074 137.973 65.6807 138.144 64.6994 138.144Z" fill="#696969"/>
<path d="M31.544 456.144C30.3387 456.144 29.32 455.915 28.488 455.456C27.6667 454.997 27.0427 454.336 26.616 453.472C26.1893 452.608 25.976 451.573 25.976 450.368C25.976 449.472 26.0933 448.667 26.328 447.952C26.5733 447.237 26.9253 446.635 27.384 446.144C27.8533 445.643 28.4187 445.259 29.08 444.992C29.752 444.715 30.5093 444.576 31.352 444.576C32.024 444.576 32.6747 444.672 33.304 444.864C33.9333 445.045 34.4933 445.339 34.984 445.744C35.112 445.84 35.192 445.947 35.224 446.064C35.256 446.181 35.2507 446.299 35.208 446.416C35.176 446.533 35.1173 446.635 35.032 446.72C34.9573 446.795 34.856 446.837 34.728 446.848C34.6107 446.859 34.488 446.821 34.36 446.736C33.9227 446.395 33.4587 446.149 32.968 446C32.4773 445.84 31.9333 445.76 31.336 445.76C30.4827 445.76 29.7573 445.941 29.16 446.304C28.5733 446.667 28.1253 447.189 27.816 447.872C27.5173 448.555 27.368 449.387 27.368 450.368C27.368 451.861 27.7147 453.003 28.408 453.792C29.112 454.581 30.168 454.976 31.576 454.976C32.088 454.976 32.5893 454.928 33.08 454.832C33.5707 454.725 34.0347 454.581 34.472 454.4L34.184 455.152V451.168H31.896C31.704 451.168 31.56 451.12 31.464 451.024C31.368 450.928 31.32 450.8 31.32 450.64C31.32 450.469 31.368 450.341 31.464 450.256C31.56 450.171 31.704 450.128 31.896 450.128H34.76C34.9413 450.128 35.08 450.176 35.176 450.272C35.272 450.368 35.32 450.507 35.32 450.688V454.864C35.32 455.024 35.2933 455.157 35.24 455.264C35.1867 455.371 35.096 455.451 34.968 455.504C34.52 455.685 33.9813 455.84 33.352 455.968C32.7333 456.085 32.1307 456.144 31.544 456.144ZM38.7214 456C38.4867 456 38.3054 455.941 38.1774 455.824C38.06 455.696 38.0014 455.515 38.0014 455.28V445.44C38.0014 445.205 38.06 445.029 38.1774 444.912C38.3054 444.784 38.4867 444.72 38.7214 444.72H44.6734C44.8547 444.72 44.9934 444.768 45.0894 444.864C45.1854 444.96 45.2334 445.093 45.2334 445.264C45.2334 445.445 45.1854 445.584 45.0894 445.68C44.9934 445.776 44.8547 445.824 44.6734 445.824H39.2814V449.728H44.3374C44.5187 449.728 44.6574 449.776 44.7534 449.872C44.8494 449.957 44.8974 450.091 44.8974 450.272C44.8974 450.453 44.8494 450.592 44.7534 450.688C44.6574 450.784 44.5187 450.832 44.3374 450.832H39.2814V454.896H44.6734C44.8547 454.896 44.9934 454.944 45.0894 455.04C45.1854 455.136 45.2334 455.269 45.2334 455.44C45.2334 455.621 45.1854 455.76 45.0894 455.856C44.9934 455.952 44.8547 456 44.6734 456H38.7214ZM47.9535 456.112C47.7508 456.112 47.5962 456.059 47.4895 455.952C47.3828 455.835 47.3295 455.669 47.3295 455.456V445.28C47.3295 445.067 47.3828 444.901 47.4895 444.784C47.5962 444.667 47.7348 444.608 47.9055 444.608C48.0762 444.608 48.1988 444.64 48.2735 444.704C48.3588 444.757 48.4548 444.859 48.5615 445.008L55.5375 454.304H55.1535V445.248C55.1535 445.045 55.2068 444.891 55.3135 444.784C55.4202 444.667 55.5748 444.608 55.7775 444.608C55.9695 444.608 56.1135 444.667 56.2095 444.784C56.3162 444.891 56.3695 445.045 56.3695 445.248V455.472C56.3695 455.675 56.3215 455.835 56.2255 455.952C56.1402 456.059 56.0122 456.112 55.8415 456.112C55.6815 456.112 55.5535 456.08 55.4575 456.016C55.3615 455.952 55.2602 455.851 55.1535 455.712L48.1935 446.416H48.5615V455.456C48.5615 455.669 48.5082 455.835 48.4015 455.952C48.2948 456.059 48.1455 456.112 47.9535 456.112ZM59.8932 456C59.6586 456 59.4773 455.941 59.3493 455.824C59.2319 455.696 59.1733 455.515 59.1733 455.28V445.44C59.1733 445.205 59.2319 445.029 59.3493 444.912C59.4773 444.784 59.6586 444.72 59.8932 444.72H65.8453C66.0266 444.72 66.1653 444.768 66.2613 444.864C66.3573 444.96 66.4053 445.093 66.4053 445.264C66.4053 445.445 66.3573 445.584 66.2613 445.68C66.1653 445.776 66.0266 445.824 65.8453 445.824H60.4533V449.728H65.5093C65.6906 449.728 65.8293 449.776 65.9253 449.872C66.0213 449.957 66.0693 450.091 66.0693 450.272C66.0693 450.453 66.0213 450.592 65.9253 450.688C65.8293 450.784 65.6906 450.832 65.5093 450.832H60.4533V454.896H65.8453C66.0266 454.896 66.1653 454.944 66.2613 455.04C66.3573 455.136 66.4053 455.269 66.4053 455.44C66.4053 455.621 66.3573 455.76 66.2613 455.856C66.1653 455.952 66.0266 456 65.8453 456H59.8932ZM69.1574 456.112C68.944 456.112 68.7787 456.053 68.6614 455.936C68.5547 455.808 68.5014 455.637 68.5014 455.424V445.392C68.5014 445.168 68.56 445.003 68.6774 444.896C68.7947 444.779 68.96 444.72 69.1734 444.72H72.9654C74.1707 444.72 75.0987 445.003 75.7494 445.568C76.4 446.133 76.7254 446.939 76.7254 447.984C76.7254 448.645 76.576 449.221 76.2774 449.712C75.9894 450.192 75.5627 450.56 74.9974 450.816C74.432 451.061 73.7547 451.184 72.9654 451.184L73.1254 450.976H73.4454C73.8614 450.976 74.224 451.083 74.5334 451.296C74.8427 451.509 75.1254 451.851 75.3814 452.32L76.9174 455.184C77.0027 455.333 77.04 455.483 77.0294 455.632C77.0294 455.771 76.9814 455.888 76.8854 455.984C76.7894 456.069 76.6507 456.112 76.4694 456.112C76.288 456.112 76.1387 456.069 76.0214 455.984C75.904 455.899 75.8027 455.776 75.7174 455.616L73.9734 452.384C73.728 451.925 73.4454 451.621 73.1254 451.472C72.8054 451.312 72.384 451.232 71.8614 451.232H69.8134V455.424C69.8134 455.637 69.76 455.808 69.6534 455.936C69.5467 456.053 69.3814 456.112 69.1574 456.112ZM69.8134 450.192H72.7734C73.648 450.192 74.3094 450.011 74.7574 449.648C75.2054 449.275 75.4294 448.72 75.4294 447.984C75.4294 447.269 75.2054 446.731 74.7574 446.368C74.3094 445.995 73.648 445.808 72.7734 445.808H69.8134V450.192ZM78.7926 456.112C78.622 456.112 78.4833 456.075 78.3766 456C78.2806 455.915 78.222 455.808 78.2006 455.68C78.19 455.541 78.222 455.387 78.2966 455.216L82.6966 445.2C82.7926 444.987 82.9046 444.837 83.0326 444.752C83.1713 444.656 83.3206 444.608 83.4806 444.608C83.6406 444.608 83.7846 444.656 83.9126 444.752C84.0513 444.837 84.1633 444.987 84.2486 445.2L88.6646 455.216C88.75 455.387 88.782 455.541 88.7606 455.68C88.75 455.819 88.6966 455.925 88.6006 456C88.5046 456.075 88.3713 456.112 88.2006 456.112C88.0086 456.112 87.854 456.064 87.7366 455.968C87.6193 455.861 87.5233 455.712 87.4486 455.52L86.2646 452.784L86.9046 453.12H80.0246L80.6806 452.784L79.5126 455.52C79.4166 455.723 79.3153 455.872 79.2086 455.968C79.102 456.064 78.9633 456.112 78.7926 456.112ZM83.4646 446.256L80.8886 452.32L80.5046 452.016H86.4246L86.0726 452.32L83.4966 446.256H83.4646ZM91.3609 456C91.1475 456 90.9822 455.941 90.8649 455.824C90.7475 455.696 90.6889 455.525 90.6889 455.312V445.328C90.6889 445.104 90.7422 444.933 90.8489 444.816C90.9662 444.699 91.1315 444.64 91.3449 444.64C91.5582 444.64 91.7182 444.699 91.8249 444.816C91.9422 444.933 92.0009 445.104 92.0009 445.328V454.848H97.2489C97.4409 454.848 97.5902 454.901 97.6969 455.008C97.8035 455.104 97.8569 455.243 97.8569 455.424C97.8569 455.605 97.8035 455.749 97.6969 455.856C97.5902 455.952 97.4409 456 97.2489 456H91.3609Z" fill="#696969"/>
</svg>
